  0
SECTION
  2
HEADER
  9
$ACADVER
  1
AC1015
  9
$ACADMAINTVER
 70
     6
  9
$DWGCODEPAGE
  3
ANSI_1252
  9
$INSBASE
 10
0.0
 20
0.0
 30
0.0
  9
$EXTMIN
 10
0.0
 20
0.0
 30
0.0
  9
$EXTMAX
 10
460.0
 20
347.75
 30
2.0
  9
$LIMMIN
 10
0.0
 20
0.0
  9
$LIMMAX
 10
420.0
 20
297.0
  9
$ORTHOMODE
 70
     0
  9
$REGENMODE
 70
     1
  9
$FILLMODE
 70
     1
  9
$QTEXTMODE
 70
     0
  9
$MIRRTEXT
 70
     1
  9
$LTSCALE
 40
1.0
  9
$ATTMODE
 70
     1
  9
$TEXTSIZE
 40
2.5
  9
$TRACEWID
 40
1.0
  9
$TEXTSTYLE
  7
Standard
  9
$CLAYER
  8
0
  9
$CELTYPE
  6
ByLayer
  9
$CECOLOR
 62
   256
  9
$CELTSCALE
 40
1.0
  9
$DISPSILH
 70
     0
  9
$DIMSCALE
 40
1.0
  9
$DIMASZ
 40
2.5
  9
$DIMEXO
 40
0.625
  9
$DIMDLI
 40
3.75
  9
$DIMRND
 40
0.0
  9
$DIMDLE
 40
0.0
  9
$DIMEXE
 40
1.25
  9
$DIMTP
 40
0.0
  9
$DIMTM
 40
0.0
  9
$DIMTXT
 40
2.5
  9
$DIMCEN
 40
2.5
  9
$DIMTSZ
 40
0.0
  9
$DIMTOL
 70
     0
  9
$DIMLIM
 70
     0
  9
$DIMTIH
 70
     0
  9
$DIMTOH
 70
     0
  9
$DIMSE1
 70
     0
  9
$DIMSE2
 70
     0
  9
$DIMTAD
 70
     1
  9
$DIMZIN
 70
     8
  9
$DIMBLK
  1

  9
$DIMASO
 70
     1
  9
$DIMSHO
 70
     1
  9
$DIMPOST
  1

  9
$DIMAPOST
  1

  9
$DIMALT
 70
     0
  9
$DIMALTD
 70
     3
  9
$DIMALTF
 40
0.03937
  9
$DIMLFAC
 40
1.0
  9
$DIMTOFL
 70
     1
  9
$DIMTVP
 40
0.0
  9
$DIMTIX
 70
     0
  9
$DIMSOXD
 70
     0
  9
$DIMSAH
 70
     0
  9
$DIMBLK1
  1

  9
$DIMBLK2
  1

  9
$DIMSTYLE
  2

  9
$DIMCLRD
 70
     0
  9
$DIMCLRE
 70
     0
  9
$DIMCLRT
 70
     0
  9
$DIMTFAC
 40
1.0
  9
$DIMGAP
 40
0.625
  9
$DIMJUST
 70
     0
  9
$DIMSD1
 70
     0
  9
$DIMSD2
 70
     0
  9
$DIMTOLJ
 70
     0
  9
$DIMTZIN
 70
     8
  9
$DIMALTZ
 70
     0
  9
$DIMALTTZ
 70
     0
  9
$DIMUPT
 70
     0
  9
$DIMDEC
 70
     2
  9
$DIMTDEC
 70
     2
  9
$DIMALTU
 70
     2
  9
$DIMALTTD
 70
     3
  9
$DIMTXSTY
  7
Standard
  9
$DIMAUNIT
 70
     0
  9
$DIMADEC
 70
     0
  9
$DIMALTRND
 40
0.0
  9
$DIMAZIN
 70
     0
  9
$DIMDSEP
 70
    44
  9
$DIMATFIT
 70
     0
  9
$DIMFRAC
 70
     0
  9
$DIMLDRBLK
  1

  9
$DIMLUNIT
 70
     2
  9
$DIMLWD
 70
    -2
  9
$DIMLWE
 70
    -2
  9
$DIMTMOVE
 70
     0
  9
$LUNITS
 70
     2
  9
$LUPREC
 70
     4
  9
$SKETCHINC
 40
1.0
  9
$FILLETRAD
 40
2.5
  9
$AUNITS
 70
     0
  9
$AUPREC
 70
     0
  9
$MENU
  1
.
  9
$ELEVATION
 40
0.0
  9
$PELEVATION
 40
0.0
  9
$THICKNESS
 40
0.0
  9
$LIMCHECK
 70
     0
  9
$CHAMFERA
 40
2.5
  9
$CHAMFERB
 40
2.5
  9
$CHAMFERC
 40
0.0
  9
$CHAMFERD
 40
0.0
  9
$SKPOLY
 70
     0
  9
$TDCREATE
 40
0.000000000
  9
$TDUCREATE
 40
0.000000000
  9
$TDUPDATE
 40
0.000000000
  9
$TDUUPDATE
 40
0.000000000
  9
$TDINDWG
 40
0.0000000000
  9
$TDUSRTIMER
 40
0.0000000000
  9
$USRTIMER
 70
     1
  9
$ANGBASE
 50
0.0
  9
$ANGDIR
 70
     0
  9
$PDMODE
 70
     0
  9
$PDSIZE
 40
0.0
  9
$PLINEWID
 40
0.0
  9
$SPLFRAME
 70
     0
  9
$SPLINETYPE
 70
     6
  9
$SPLINESEGS
 70
     8
  9
$HANDSEED
  5
21A
  9
$SURFTAB1
 70
     6
  9
$SURFTAB2
 70
     6
  9
$SURFTYPE
 70
     6
  9
$SURFU
 70
     6
  9
$SURFV
 70
     6
  9
$UCSBASE
  2

  9
$UCSNAME
  2

  9
$UCSORG
 10
0.0
 20
0.0
 30
0.0
  9
$UCSXDIR
 10
1.0
 20
0.0
 30
0.0
  9
$UCSYDIR
 10
0.0
 20
1.0
 30
0.0
  9
$UCSORTHOREF
  2

  9
$UCSORTHOVIEW
 70
     1
  9
$UCSORGTOP
 10
0.0
 20
0.0
 30
0.0
  9
$UCSORGBOTTOM
 10
0.0
 20
0.0
 30
0.0
  9
$UCSORGLEFT
 10
0.0
 20
0.0
 30
0.0
  9
$UCSORGRIGHT
 10
0.0
 20
0.0
 30
0.0
  9
$UCSORGFRONT
 10
0.0
 20
0.0
 30
0.0
  9
$UCSORGBACK
 10
0.0
 20
0.0
 30
0.0
  9
$PUCSBASE
  2

  9
$PUCSNAME
  2

  9
$PUCSORG
 10
0.0
 20
0.0
 30
0.0
  9
$PUCSXDIR
 10
1.0
 20
0.0
 30
0.0
  9
$PUCSYDIR
 10
0.0
 20
1.0
 30
0.0
  9
$PUCSORTHOREF
  2

  9
$PUCSORTHOVIEW
 70
     0
  9
$PUCSORGTOP
 10
0.0
 20
0.0
 30
0.0
  9
$PUCSORGBOTTOM
 10
0.0
 20
0.0
 30
0.0
  9
$PUCSORGLEFT
 10
0.0
 20
0.0
 30
0.0
  9
$PUCSORGRIGHT
 10
0.0
 20
0.0
 30
0.0
  9
$PUCSORGFRONT
 10
0.0
 20
0.0
 30
0.0
  9
$PUCSORGBACK
 10
0.0
 20
0.0
 30
0.0
  9
$USERI1
 70
     0
  9
$USERI2
 70
     0
  9
$USERI3
 70
     0
  9
$USERI4
 70
     0
  9
$USERI5
 70
     0
  9
$USERR1
 40
0.0
  9
$USERR2
 40
0.0
  9
$USERR3
 40
0.0
  9
$USERR4
 40
0.0
  9
$USERR5
 40
0.0
  9
$WORLDVIEW
 70
     1
  9
$SHADEDGE
 70
     3
  9
$SHADEDIF
 70
    70
  9
$TILEMODE
 70
     1
  9
$MAXACTVP
 70
    48
  9
$PINSBASE
 10
0.0
 20
0.0
 30
0.0
  9
$PLIMCHECK
 70
     0
  9
$PEXTMIN
 10
0.0
 20
0.0
 30
0.0
  9
$PEXTMAX
 10
460.0
 20
347.75
 30
2.0
  9
$PLIMMIN
 10
0.0
 20
0.0
  9
$PLIMMAX
 10
420.0
 20
297.0
  9
$UNITMODE
 70
     0
  9
$VISRETAIN
 70
     0
  9
$PLINEGEN
 70
     0
  9
$PSLTSCALE
 70
     1
  9
$TREEDEPTH
 70
  3020
  9
$CMLSTYLE
  2
Standard
  9
$CMLJUST
 70
     0
  9
$CMLSCALE
 40
20.0
  9
$PROXYGRAPHICS
 70
     1
  9
$MEASUREMENT
 70
     1
  9
$CELWEIGHT
370
    -1
  9
$ENDCAPS
280
     0
  9
$JOINSTYLE
280
     0
  9
$LWDISPLAY
290
     0
  9
$INSUNITS
 70
     0
  9
$HYPERLINKBASE
  1

  9
$STYLESHEET
  1

  9
$XEDIT
290
     1
  9
$CEPSNTYPE
380
     0
  9
$PSTYLEMODE
290
     0
  9
$FINGERPRINTGUID
  2

  9
$VERSIONGUID
  2

  9
$EXTNAMES
290
     0
  9
$PSVPSCALE
 40
0.0
  0
ENDSEC
  0
SECTION
  2
CLASSES
  0
CLASS
  1
LWPOLYLINE
  2
AcDbPolyline
  3
AutoCAD 2000
 90
        0
280
     0
281
     1
  0
CLASS
  1
IMAGE
  2
AcDbRasterImage
  3
ISM
 90
      127
280
     0
281
     1
  0
CLASS
  1
OLE2FRAME
  2
AcDbOle2Frame
  3
AutoCAD 2000
 90
        0
280
     0
281
     1
  0
CLASS
  1
HATCH
  2
AcDbHatch
  3
AutoCAD 2000
 90
        0
280
     0
281
     1
  0
CLASS
  1
DICTIONARYVAR
  2
AcDbDictionaryVar
  3
AutoCAD 2000
 90
        0
280
     0
281
     0
  0
CLASS
  1
RASTERVARIABLES
  2
AcDbRasterVariables
  3
ISM
 90
        0
280
     0
281
     0
  0
CLASS
  1
IMAGEDEF
  2
AcDbRasterImageDef
  3
ISM
 90
        0
280
     0
281
     0
  0
CLASS
  1
IMAGEDEF_REACTOR
  2
AcDbRasterImageDefReactor
  3
ISM
 90
        1
280
     0
281
     0
  0
CLASS
  1
IDBUFFER
  2
AcDbIdBuffer
  3
AutoCAD 2000
 90
        0
280
     0
281
     0
  0
CLASS
  1
SPATIAL_FILTER
  2
AcDbSpatialFilter
  3
AutoCAD 2000
 90
        0
280
     0
281
     0
  0
CLASS
  1
XRECORD
  2
AcDbXrecord
  3
AutoCAD 2000
 90
        0
280
     0
281
     0
  0
CLASS
  1
SORTENTSTABLE
  2
AcDbSortentsTable
  3
AutoCAD 2000
 90
        0
280
     0
281
     0
  0
CLASS
  1
LAYER_INDEX
  2
AcDbLayerIndex
  3
AutoCAD 2000
 90
        0
280
     0
281
     0
  0
CLASS
  1
SPATIAL_INDEX
  2
AcDbSpatialIndex
  3
AutoCAD 2000
 90
        0
280
     0
281
     0
  0
CLASS
  1
OBJECT_PTR
  2
CAseDLPNTableRecord
  3
"ASE-LPNTableRecord"
 90
        1
280
     0
281
     0
  0
CLASS
  1
LAYOUT
  2
AcDbLayout
  3
AutoCAD 2000
 90
        0
280
     0
281
     0
  0
CLASS
  1
PLOTSETTINGS
  2
AcDbPlotSettings
  3
AutoCAD 2000
 90
        0
280
     0
281
     0
  0
CLASS
  1
ACDBDICTIONARYWDFLT
  2
AcDbDictionaryWithDefault
  3
AutoCAD 2000
 90
        0
280
     0
281
     0
  0
CLASS
  1
ACDBPLACEHOLDER
  2
AcDbPlaceHolder
  3
AutoCAD 2000
 90
        0
280
     0
281
     0
  0
CLASS
  1
VBA_PROJECT
  2
AcDbVbaProject
  3
acadvba
 90
        0
280
     0
281
     0
  0
CLASS
  1
WIPEOUT
  2
AcDbWipeout
  3
WipeOut|AutoCAD Express Tool|expresstools@autodesk.com
 90
      127
280
     0
281
     1
  0
CLASS
  1
WIPEOUTVARIABLES
  2
AcDbWipeoutVariables
  3
WipeOut|AutoCAD Express Tool|expresstools@autodesk.com
 90
        0
280
     0
281
     0
  0
CLASS
  1
RTEXT
  2
RText
  3
RText|AutoCAD Express Tool|expresstools@autodesk.com
 90
        0
280
     0
281
     1
  0
CLASS
  1
ARCALIGNEDTEXT
  2
AcDbArcAlignedText
  3
ATEXT|AutoCAD Express Tool|expresstools@autodesk.com
 90
        0
280
     0
281
     1
  0
ENDSEC
  0
SECTION
  2
TABLES
  0
TABLE
  2
VPORT
  5
7
100
AcDbSymbolTable
 70
     1
  0
VPORT
  5
15
100
AcDbSymbolTableRecord
100
AcDbViewportTableRecord
  2
*ACTIVE
 70
     0
 10
0.0
 20
0.0
 11
1.0
 21
1.0
 12
6.591288
 22
4.579184
 13
0.0
 23
0.0
 14
1.0
 24
1.0
 15
0.0
 25
0.0
 16
0.0
 26
0.0
 36
1.0
 17
0.0
 27
0.0
 37
0.0
 40
9.158369
 41
0.688564
 42
50.0
 43
0.0
 44
0.0
 50
0.0
 51
0.0
 71
     0
 72
   100
 73
     1
 74
     1
 75
     0
 76
     0
 77
     0
 78
     0
281
     0
 65
     0
110
0.0
120
0.0
130
0.0
111
1.0
121
0.0
131
0.0
112
0.0
122
1.0
132
0.0
345
0
346
0
 79
     0
146
0.0
  0
ENDTAB
  0
TABLE
  2
LTYPE
  5
4
100
AcDbSymbolTable
 70
     3
  0
LTYPE
  5
11
100
AcDbSymbolTableRecord
100
AcDbLinetypeTableRecord
  2
ByBlock
 70
    64
  3

 72
    65
 73
     0
 40
0.0
  0
LTYPE
  5
12
100
AcDbSymbolTableRecord
100
AcDbLinetypeTableRecord
  2
ByLayer
 70
    64
  3

 72
    65
 73
     0
 40
0.0
  0
LTYPE
  5
13
100
AcDbSymbolTableRecord
100
AcDbLinetypeTableRecord
  2
Continuous
 70
    64
  3
Solid line
 72
    65
 73
     0
 40
0.0
  0
ENDTAB
  0
TABLE
  2
LAYER
  5
2
100
AcDbSymbolTable
 70
     1
  0
LAYER
  5
14
100
AcDbSymbolTableRecord
100
AcDbLayerTableRecord
  2
0
 70
     0
 62
     7
  6
Continuous
290
     1
370
    -3
390
1D
  0
ENDTAB
  0
TABLE
  2
STYLE
  5
3
100
AcDbSymbolTable
 70
     1
  0
STYLE
  5
17
100
AcDbSymbolTableRecord
100
AcDbTextStyleTableRecord
  2
Standard
 70
     0
 40
0.0
 41
1.0
 50
0.0
 71
     0
 42
0.0
  3
txt
  4

  0
ENDTAB
  0
TABLE
  2
VIEW
  5
5
100
AcDbSymbolTable
 70
     0
  0
ENDTAB
  0
TABLE
  2
UCS
  5
6
100
AcDbSymbolTable
 70
     0
  0
ENDTAB
  0
TABLE
  2
APPID
  5
8
100
AcDbSymbolTable
 70
     1
  0
APPID
  5
16
100
AcDbSymbolTableRecord
100
AcDbRegAppTableRecord
  2
ACAD
 70
     0
  0
ENDTAB
  0
TABLE
  2
DIMSTYLE
  5
9
100
AcDbSymbolTable
 70
     1
100
AcDbDimStyleTable
 71
     0
  0
DIMSTYLE
105
18
100
AcDbSymbolTableRecord
100
AcDbDimStyleTableRecord
  2
Standard
 70
     0
  3

  4

 40
1.0
 41
0.18
 42
0.0625
 43
0.38
 44
0.18
 45
0.0
 46
0.0
 47
0.0
 48
0.0
 71
     0
 72
     0
 73
     1
 74
     1
 75
     0
 76
     0
 77
     0
 78
     0
 79
     0
140
0.18
141
0.09
142
0.0
143
25.4
144
1.0
145
0.0
146
1.0
147
0.09
148
0.0
170
     0
171
     2
172
     0
173
     0
174
     0
175
     0
176
     0
177
     0
178
     0
179
     0
271
     4
272
     4
273
     2
274
     2
275
     0
276
     0
277
     2
278
    46
279
     0
280
     0
281
     0
282
     0
283
     1
284
     0
285
     0
286
     0
288
     0
289
     3
340
17
341
0
342
0
343
0
344
0
371
    -2
372
    -2
  0
ENDTAB
  0
TABLE
  2
BLOCK_RECORD
  5
1
100
AcDbSymbolTable
 70
     0
  0
BLOCK_RECORD
  5
A
100
AcDbSymbolTableRecord
100
AcDbBlockTableRecord
  2
*MODEL_SPACE
340
20
  0
BLOCK_RECORD
  5
B
100
AcDbSymbolTableRecord
100
AcDbBlockTableRecord
  2
*PAPER_SPACE
340
21
  0
ENDTAB
  0
ENDSEC
  0
SECTION
  2
BLOCKS
  0
BLOCK
  5
D
100
AcDbEntity
  8
0
390
0
100
AcDbBlockBegin
  2
*MODEL_SPACE
 70
     0
 10
0.0
 20
0.0
 30
0.0
  3
*MODEL_SPACE
  1

  0
ENDBLK
  5
E
100
AcDbEntity
  8
0
390
0
100
AcDbBlockEnd
  0
BLOCK
  5
F
100
AcDbEntity
 67
     1
  8
0
390
0
100
AcDbBlockBegin
  2
*PAPER_SPACE
 70
     0
 10
0.0
 20
0.0
 30
0.0
  3
*PAPER_SPACE
  1

  0
ENDBLK
  5
10
100
AcDbEntity
 67
     1
  8
0
390
0
100
AcDbBlockEnd
  0
ENDSEC
  0
SECTION
  2
ENTITIES
  0
VIEWPORT
  5
219
100
AcDbEntity
 67
     1
  8
0
370
     0
390
0
 62
     0
 48
0.0
100
AcDbViewport
 10
0.0
 20
0.0
 30
0.0
 40
1000.0
 41
1000.0
 68
     1
 69
     1
 12
0.0
 22
0.0
 13
0.0
 23
0.0
 14
1.0
 24
1.0
 15
1.0
 25
1.0
 16
0.0
 26
0.0
 36
1.0
 17
0.0
 27
0.0
 37
0.0
 42
50.0
 43
0.0
 44
0.0
 45
1000.0
 50
0.0
 51
0.0
 72
   100
 90
        0
340
0
  1

281
     0
 71
     0
 74
     1
110
0.0
120
0.0
130
0.0
111
1.0
121
0.0
131
0.0
112
0.0
122
1.0
132
0.0
345
0
346
0
 79
     0
146
0.0
  0
LINE
  5
24
100
AcDbEntity
  8
0
370
    35
390
0
 62
     7
 48
0.095238
100
AcDbLine
 10
231.37587
 20
64.638695
 30
0.0
 11
235.185394
 21
64.638695
 31
0.0
210
0.0
220
0.0
230
1.0
  0
LINE
  5
25
100
AcDbEntity
  8
0
370
    35
390
0
 62
     7
 48
0.272894
100
AcDbLine
 10
235.185394
 20
64.638695
 30
0.0
 11
235.185394
 21
53.722954
 31
0.0
210
0.0
220
0.0
230
1.0
  0
LINE
  5
26
100
AcDbEntity
  8
0
370
    35
390
0
 62
     7
 48
0.095238
100
AcDbLine
 10
231.37587
 20
53.722954
 30
0.0
 11
235.185394
 21
53.722954
 31
0.0
210
0.0
220
0.0
230
1.0
  0
LINE
  5
27
100
AcDbEntity
  8
0
370
    35
390
0
 62
     7
 48
0.096154
100
AcDbLine
 10
189.03154
 20
64.638695
 30
0.0
 11
185.185394
 21
64.638695
 31
0.0
210
0.0
220
0.0
230
1.0
  0
LINE
  5
28
100
AcDbEntity
  8
0
370
    35
390
0
 62
     7
 48
0.272894
100
AcDbLine
 10
185.185394
 20
64.638695
 30
0.0
 11
185.185394
 21
53.722954
 31
0.0
210
0.0
220
0.0
230
1.0
  0
LINE
  5
29
100
AcDbEntity
  8
0
370
    35
390
0
 62
     7
 48
0.096154
100
AcDbLine
 10
185.185394
 20
53.722954
 30
0.0
 11
189.03154
 21
53.722954
 31
0.0
210
0.0
220
0.0
230
1.0
  0
LINE
  5
2A
100
AcDbEntity
  8
0
370
    35
390
0
 62
     7
 48
0.096154
100
AcDbLine
 10
231.339233
 20
122.037971
 30
0.0
 11
235.185394
 21
122.037971
 31
0.0
210
0.0
220
0.0
230
1.0
  0
LINE
  5
2B
100
AcDbEntity
  8
0
370
    35
390
0
 62
     7
100
AcDbLine
 10
235.185394
 20
122.037971
 30
0.0
 11
235.185394
 21
93.1735
 31
0.0
210
0.0
220
0.0
230
1.0
  0
LINE
  5
2C
100
AcDbEntity
  8
0
370
    35
390
0
 62
     7
 48
0.095238
100
AcDbLine
 10
188.994919
 20
111.122215
 30
0.0
 11
185.185394
 21
111.122215
 31
0.0
210
0.0
220
0.0
230
1.0
  0
LINE
  5
2D
100
AcDbEntity
  8
0
370
    35
390
0
 62
     7
 48
0.095238
100
AcDbLine
 10
188.994919
 20
122.037971
 30
0.0
 11
185.185394
 21
122.037971
 31
0.0
210
0.0
220
0.0
230
1.0
  0
LINE
  5
2E
100
AcDbEntity
  8
0
370
    35
390
0
 62
     7
 48
0.272894
100
AcDbLine
 10
185.185394
 20
122.037971
 30
0.0
 11
185.185394
 21
111.122215
 31
0.0
210
0.0
220
0.0
230
1.0
  0
LINE
  5
2F
100
AcDbEntity
  8
0
370
    35
390
0
 62
     7
 48
0.096154
100
AcDbLine
 10
231.339249
 20
243.613068
 30
0.0
 11
235.185394
 21
243.613068
 31
0.0
210
0.0
220
0.0
230
1.0
  0
LINE
  5
30
100
AcDbEntity
  8
0
370
    35
390
0
 62
     7
100
AcDbLine
 10
235.185394
 20
243.613068
 30
0.0
 11
235.185394
 21
214.748596
 31
0.0
210
0.0
220
0.0
230
1.0
  0
LINE
  5
31
100
AcDbEntity
  8
0
370
    35
390
0
 62
     7
 48
0.095238
100
AcDbLine
 10
188.994919
 20
243.613068
 30
0.0
 11
185.185394
 21
243.613068
 31
0.0
210
0.0
220
0.0
230
1.0
  0
LINE
  5
32
100
AcDbEntity
  8
0
370
    35
390
0
 62
     7
 48
0.272894
100
AcDbLine
 10
185.185394
 20
243.613068
 30
0.0
 11
185.185394
 21
232.697311
 31
0.0
210
0.0
220
0.0
230
1.0
  0
LINE
  5
33
100
AcDbEntity
  8
0
370
    35
390
0
 62
     7
 48
0.095238
100
AcDbLine
 10
188.994919
 20
232.697311
 30
0.0
 11
185.185394
 21
232.697311
 31
0.0
210
0.0
220
0.0
230
1.0
  0
LINE
  5
34
100
AcDbEntity
  8
0
370
    35
390
0
 62
     7
100
AcDbLine
 10
10.0
 20
88.0
 30
0.0
 11
-30.0
 21
88.0
 31
0.0
210
0.0
220
0.0
230
1.0
  0
LINE
  5
35
100
AcDbEntity
  8
0
370
    35
390
0
 62
     7
100
AcDbLine
 10
10.0
 20
209.0
 30
0.0
 11
10.0
 21
88.0
 31
0.0
210
0.0
220
0.0
230
1.0
  0
LINE
  5
36
100
AcDbEntity
  8
0
370
    35
390
0
 62
     7
100
AcDbLine
 10
-30.0
 20
58.5
 30
0.0
 11
-30.0
 21
88.0
 31
0.0
210
0.0
220
0.0
230
1.0
  0
LINE
  5
37
100
AcDbEntity
  8
0
370
    35
390
0
 62
     7
100
AcDbLine
 10
-30.0
 20
209.0
 30
0.0
 11
10.0
 21
209.0
 31
0.0
210
0.0
220
0.0
230
1.0
  0
LINE
  5
38
100
AcDbEntity
  8
0
370
    35
390
0
 62
     7
 48
0.25
100
AcDbLine
 10
-40.0
 20
58.5
 30
0.0
 11
-30.0
 21
58.5
 31
0.0
210
0.0
220
0.0
230
1.0
  0
LINE
  5
39
100
AcDbEntity
  8
0
370
    35
390
0
 62
     7
100
AcDbLine
 10
-40.0
 20
-50.75
 30
0.0
 11
-40.0
 21
58.5
 31
0.0
210
0.0
220
0.0
230
1.0
  0
LINE
  5
3A
100
AcDbEntity
  8
0
370
    35
390
0
 62
     7
100
AcDbLine
 10
460.0
 20
-50.75
 30
0.0
 11
-40.0
 21
-50.75
 31
0.0
210
0.0
220
0.0
230
1.0
  0
LINE
  5
3B
100
AcDbEntity
  8
0
370
    35
390
0
 62
     7
100
AcDbLine
 10
460.0
 20
-2.25
 30
0.0
 11
460.0
 21
-50.75
 31
0.0
210
0.0
220
0.0
230
1.0
  0
LINE
  5
3C
100
AcDbEntity
  8
0
370
    35
390
0
 62
     7
 48
0.25
100
AcDbLine
 10
460.0
 20
-2.25
 30
0.0
 11
450.0
 21
-2.25
 31
0.0
210
0.0
220
0.0
230
1.0
  0
LINE
  5
3D
100
AcDbEntity
  8
0
370
    35
390
0
 62
     7
100
AcDbLine
 10
450.0
 20
-2.25
 30
0.0
 11
450.0
 21
148.5
 31
0.0
210
0.0
220
0.0
230
1.0
  0
LINE
  5
3E
100
AcDbEntity
  8
0
370
    35
390
0
 62
     7
100
AcDbLine
 10
450.0
 20
299.25
 30
0.0
 11
450.0
 21
148.5
 31
0.0
210
0.0
220
0.0
230
1.0
  0
LINE
  5
3F
100
AcDbEntity
  8
0
370
    35
390
0
 62
     7
 48
0.25
100
AcDbLine
 10
460.0
 20
299.25
 30
0.0
 11
450.0
 21
299.25
 31
0.0
210
0.0
220
0.0
230
1.0
  0
LINE
  5
40
100
AcDbEntity
  8
0
370
    35
390
0
 62
     7
100
AcDbLine
 10
460.0
 20
347.75
 30
0.0
 11
460.0
 21
299.25
 31
0.0
210
0.0
220
0.0
230
1.0
  0
LINE
  5
41
100
AcDbEntity
  8
0
370
    35
390
0
 62
     7
100
AcDbLine
 10
-40.0
 20
347.75
 30
0.0
 11
460.0
 21
347.75
 31
0.0
210
0.0
220
0.0
230
1.0
  0
LINE
  5
42
100
AcDbEntity
  8
0
370
    35
390
0
 62
     7
100
AcDbLine
 10
-40.0
 20
238.5
 30
0.0
 11
-40.0
 21
347.75
 31
0.0
210
0.0
220
0.0
230
1.0
  0
LINE
  5
43
100
AcDbEntity
  8
0
370
    35
390
0
 62
     7
 48
0.25
100
AcDbLine
 10
-40.0
 20
238.5
 30
0.0
 11
-30.0
 21
238.5
 31
0.0
210
0.0
220
0.0
230
1.0
  0
LINE
  5
44
100
AcDbEntity
  8
0
370
    35
390
0
 62
     7
100
AcDbLine
 10
-30.0
 20
238.5
 30
0.0
 11
-30.0
 21
209.0
 31
0.0
210
0.0
220
0.0
230
1.0
  0
CIRCLE
  5
45
100
AcDbEntity
  8
0
370
    35
390
0
 62
     7
100
AcDbCircle
 10
291.666656
 20
-26.5
 30
0.0
 40
2.25
210
0.0
220
0.0
230
1.0
  0
CIRCLE
  5
46
100
AcDbEntity
  8
0
370
    35
390
0
 62
     7
100
AcDbCircle
 10
455.0
 20
-26.5
 30
0.0
 40
2.25
210
0.0
220
0.0
230
1.0
  0
LINE
  5
47
100
AcDbEntity
  8
0
370
    35
390
0
 62
     7
 48
0.023959
100
AcDbLine
 10
218.378067
 20
195.150055
 30
0.0
 11
217.429352
 21
195.285583
 31
0.0
210
0.0
220
0.0
230
1.0
  0
LINE
  5
48
100
AcDbEntity
  8
0
370
    35
390
0
 62
     7
 48
0.023577
100
AcDbLine
 10
217.429352
 20
195.285583
 30
0.0
 11
216.505539
 21
195.475327
 31
0.0
210
0.0
220
0.0
230
1.0
  0
LINE
  5
49
100
AcDbEntity
  8
0
370
    35
390
0
 62
     7
 48
0.023285
100
AcDbLine
 10
216.505539
 20
195.475327
 30
0.0
 11
215.606644
 21
195.719284
 31
0.0
210
0.0
220
0.0
230
1.0
  0
LINE
  5
4A
100
AcDbEntity
  8
0
370
    35
390
0
 62
     7
 48
0.023087
100
AcDbLine
 10
215.606644
 20
195.719284
 30
0.0
 11
214.732635
 21
196.017456
 31
0.0
210
0.0
220
0.0
230
1.0
  0
LINE
  5
4B
100
AcDbEntity
  8
0
370
    35
390
0
 62
     7
 48
0.022982
100
AcDbLine
 10
214.732635
 20
196.017456
 30
0.0
 11
213.88356
 21
196.369843
 31
0.0
210
0.0
220
0.0
230
1.0
  0
LINE
  5
4C
100
AcDbEntity
  8
0
370
    35
390
0
 62
     7
 48
0.022975
100
AcDbLine
 10
213.88356
 20
196.369843
 30
0.0
 11
213.059387
 21
196.776428
 31
0.0
210
0.0
220
0.0
230
1.0
  0
LINE
  5
4D
100
AcDbEntity
  8
0
370
    35
390
0
 62
     7
 48
0.023065
100
AcDbLine
 10
213.059387
 20
196.776428
 30
0.0
 11
212.260117
 21
197.237244
 31
0.0
210
0.0
220
0.0
230
1.0
  0
LINE
  5
4E
100
AcDbEntity
  8
0
370
    35
390
0
 62
     7
 48
0.023249
100
AcDbLine
 10
212.260117
 20
197.237244
 30
0.0
 11
211.485764
 21
197.752258
 31
0.0
210
0.0
220
0.0
230
1.0
  0
LINE
  5
4F
100
AcDbEntity
  8
0
370
    35
390
0
 62
     7
 48
0.019925
100
AcDbLine
 10
211.485764
 20
197.752258
 30
0.0
 11
210.8526
 21
198.236328
 31
0.0
210
0.0
220
0.0
230
1.0
  0
LINE
  5
50
100
AcDbEntity
  8
0
370
    35
390
0
 62
     7
 48
0.019672
100
AcDbLine
 10
210.8526
 20
198.236328
 30
0.0
 11
210.257187
 21
198.750793
 31
0.0
210
0.0
220
0.0
230
1.0
  0
LINE
  5
51
100
AcDbEntity
  8
0
370
    35
390
0
 62
     7
 48
0.019492
100
AcDbLine
 10
210.257187
 20
198.750793
 30
0.0
 11
209.699493
 21
199.29567
 31
0.0
210
0.0
220
0.0
230
1.0
  0
LINE
  5
52
100
AcDbEntity
  8
0
370
    35
390
0
 62
     7
 48
0.019386
100
AcDbLine
 10
209.699493
 20
199.29567
 30
0.0
 11
209.179535
 21
199.870941
 31
0.0
210
0.0
220
0.0
230
1.0
  0
LINE
  5
53
100
AcDbEntity
  8
0
370
    35
390
0
 62
     7
 48
0.019355
100
AcDbLine
 10
209.179535
 20
199.870941
 30
0.0
 11
208.697296
 21
200.476624
 31
0.0
210
0.0
220
0.0
230
1.0
  0
LINE
  5
54
100
AcDbEntity
  8
0
370
    35
390
0
 62
     7
 48
0.0194
100
AcDbLine
 10
208.697296
 20
200.476624
 30
0.0
 11
208.252792
 21
201.112701
 31
0.0
210
0.0
220
0.0
230
1.0
  0
LINE
  5
55
100
AcDbEntity
  8
0
370
    35
390
0
 62
     7
 48
0.019521
100
AcDbLine
 10
208.252792
 20
201.112701
 30
0.0
 11
207.846008
 21
201.77919
 31
0.0
210
0.0
220
0.0
230
1.0
  0
LINE
  5
56
100
AcDbEntity
  8
0
370
    35
390
0
 62
     7
 48
0.019714
100
AcDbLine
 10
207.846008
 20
201.77919
 30
0.0
 11
207.476959
 21
202.476074
 31
0.0
210
0.0
220
0.0
230
1.0
  0
LINE
  5
57
100
AcDbEntity
  8
0
370
    35
390
0
 62
     7
 48
0.01998
100
AcDbLine
 10
207.476959
 20
202.476074
 30
0.0
 11
207.145645
 21
203.203354
 31
0.0
210
0.0
220
0.0
230
1.0
  0
LINE
  5
58
100
AcDbEntity
  8
0
370
    35
390
0
 62
     7
 48
0.020315
100
AcDbLine
 10
207.145645
 20
203.203354
 30
0.0
 11
206.852051
 21
203.961044
 31
0.0
210
0.0
220
0.0
230
1.0
  0
LINE
  5
59
100
AcDbEntity
  8
0
370
    35
390
0
 62
     7
 48
0.02112
100
AcDbLine
 10
206.852051
 20
203.961044
 30
0.0
 11
206.591064
 21
204.764526
 31
0.0
210
0.0
220
0.0
230
1.0
  0
LINE
  5
5A
100
AcDbEntity
  8
0
370
    35
390
0
 62
     7
 48
0.022391
100
AcDbLine
 10
206.591064
 20
204.764526
 30
0.0
 11
206.357559
 21
205.629181
 31
0.0
210
0.0
220
0.0
230
1.0
  0
LINE
  5
5B
100
AcDbEntity
  8
0
370
    35
390
0
 62
     7
 48
0.023712
100
AcDbLine
 10
206.357559
 20
205.629181
 30
0.0
 11
206.151505
 21
206.555008
 31
0.0
210
0.0
220
0.0
230
1.0
  0
LINE
  5
5C
100
AcDbEntity
  8
0
370
    35
390
0
 62
     7
 48
0.025076
100
AcDbLine
 10
206.151505
 20
206.555008
 30
0.0
 11
205.972931
 21
207.542007
 31
0.0
210
0.0
220
0.0
230
1.0
  0
LINE
  5
5D
100
AcDbEntity
  8
0
370
    35
390
0
 62
     7
 48
0.026475
100
AcDbLine
 10
205.972931
 20
207.542007
 30
0.0
 11
205.821838
 21
208.590179
 31
0.0
210
0.0
220
0.0
230
1.0
  0
LINE
  5
5E
100
AcDbEntity
  8
0
370
    35
390
0
 62
     7
 48
0.027905
100
AcDbLine
 10
205.821838
 20
208.590179
 30
0.0
 11
205.698212
 21
209.699509
 31
0.0
210
0.0
220
0.0
230
1.0
  0
LINE
  5
5F
100
AcDbEntity
  8
0
370
    35
390
0
 62
     7
 48
0.029362
100
AcDbLine
 10
205.698212
 20
209.699509
 30
0.0
 11
205.602051
 21
210.870026
 31
0.0
210
0.0
220
0.0
230
1.0
  0
LINE
  5
60
100
AcDbEntity
  8
0
370
    35
390
0
 62
     7
 48
0.03084
100
AcDbLine
 10
205.602051
 20
210.870026
 30
0.0
 11
205.533371
 21
212.101715
 31
0.0
210
0.0
220
0.0
230
1.0
  0
LINE
  5
61
100
AcDbEntity
  8
0
370
    35
390
0
 62
     7
 48
0.032338
100
AcDbLine
 10
205.533371
 20
212.101715
 30
0.0
 11
205.492172
 21
213.394577
 31
0.0
210
0.0
220
0.0
230
1.0
  0
LINE
  5
62
100
AcDbEntity
  8
0
370
    35
390
0
 62
     7
 48
0.033852
100
AcDbLine
 10
205.492172
 20
213.394577
 30
0.0
 11
205.478424
 21
214.748596
 31
0.0
210
0.0
220
0.0
230
1.0
  0
LINE
  5
63
100
AcDbEntity
  8
0
370
    35
390
0
 62
     7
 48
0.448718
100
AcDbLine
 10
205.478424
 20
214.748596
 30
0.0
 11
205.478424
 21
232.697311
 31
0.0
210
0.0
220
0.0
230
1.0
  0
LINE
  5
64
100
AcDbEntity
  8
0
370
    35
390
0
 62
     7
 48
0.412088
100
AcDbLine
 10
205.478424
 20
232.697311
 30
0.0
 11
188.994919
 21
232.697311
 31
0.0
210
0.0
220
0.0
230
1.0
  0
LINE
  5
65
100
AcDbEntity
  8
0
370
    35
390
0
 62
     7
 48
0.026727
100
AcDbLine
 10
235.185394
 20
214.748596
 30
0.0
 11
235.178085
 21
213.679535
 31
0.0
210
0.0
220
0.0
230
1.0
  0
LINE
  5
66
100
AcDbEntity
  8
0
370
    35
390
0
 62
     7
 48
0.025606
100
AcDbLine
 10
235.178085
 20
213.679535
 30
0.0
 11
235.156082
 21
212.655548
 31
0.0
210
0.0
220
0.0
230
1.0
  0
LINE
  5
67
100
AcDbEntity
  8
0
370
    35
390
0
 62
     7
 48
0.02449
100
AcDbLine
 10
235.156082
 20
212.655548
 30
0.0
 11
235.119461
 21
211.67662
 31
0.0
210
0.0
220
0.0
230
1.0
  0
LINE
  5
68
100
AcDbEntity
  8
0
370
    35
390
0
 62
     7
 48
0.023382
100
AcDbLine
 10
235.119461
 20
211.67662
 30
0.0
 11
235.068176
 21
210.742737
 31
0.0
210
0.0
220
0.0
230
1.0
  0
LINE
  5
69
100
AcDbEntity
  8
0
370
    35
390
0
 62
     7
 48
0.022282
100
AcDbLine
 10
235.068176
 20
210.742737
 30
0.0
 11
235.002258
 21
209.853912
 31
0.0
210
0.0
220
0.0
230
1.0
  0
LINE
  5
6A
100
AcDbEntity
  8
0
370
    35
390
0
 62
     7
 48
0.021191
100
AcDbLine
 10
235.002258
 20
209.853912
 30
0.0
 11
234.921661
 21
209.010132
 31
0.0
210
0.0
220
0.0
230
1.0
  0
LINE
  5
6B
100
AcDbEntity
  8
0
370
    35
390
0
 62
     7
 48
0.020109
100
AcDbLine
 10
234.921661
 20
209.010132
 30
0.0
 11
234.826431
 21
208.211411
 31
0.0
210
0.0
220
0.0
230
1.0
  0
LINE
  5
6C
100
AcDbEntity
  8
0
370
    35
390
0
 62
     7
 48
0.019041
100
AcDbLine
 10
234.826431
 20
208.211411
 30
0.0
 11
234.716522
 21
207.457748
 31
0.0
210
0.0
220
0.0
230
1.0
  0
LINE
  5
6D
100
AcDbEntity
  8
0
370
    35
390
0
 62
     7
 48
0.017987
100
AcDbLine
 10
234.716522
 20
207.457748
 30
0.0
 11
234.591995
 21
206.749146
 31
0.0
210
0.0
220
0.0
230
1.0
  0
LINE
  5
6E
100
AcDbEntity
  8
0
370
    35
390
0
 62
     7
 48
0.01695
100
AcDbLine
 10
234.591995
 20
206.749146
 30
0.0
 11
234.452789
 21
206.085587
 31
0.0
210
0.0
220
0.0
230
1.0
  0
LINE
  5
6F
100
AcDbEntity
  8
0
370
    35
390
0
 62
     7
 48
0.016318
100
AcDbLine
 10
234.452789
 20
206.085587
 30
0.0
 11
234.295654
 21
205.452072
 31
0.0
210
0.0
220
0.0
230
1.0
  0
LINE
  5
70
100
AcDbEntity
  8
0
370
    35
390
0
 62
     7
 48
0.016093
100
AcDbLine
 10
234.295654
 20
205.452072
 30
0.0
 11
234.117264
 21
204.833572
 31
0.0
210
0.0
220
0.0
230
1.0
  0
LINE
  5
71
100
AcDbEntity
  8
0
370
    35
390
0
 62
     7
 48
0.015891
100
AcDbLine
 10
234.117264
 20
204.833572
 30
0.0
 11
233.917633
 21
204.230103
 31
0.0
210
0.0
220
0.0
230
1.0
  0
LINE
  5
72
100
AcDbEntity
  8
0
370
    35
390
0
 62
     7
 48
0.015714
100
AcDbLine
 10
233.917633
 20
204.230103
 30
0.0
 11
233.696747
 21
203.641632
 31
0.0
210
0.0
220
0.0
230
1.0
  0
LINE
  5
73
100
AcDbEntity
  8
0
370
    35
390
0
 62
     7
 48
0.015561
100
AcDbLine
 10
233.696747
 20
203.641632
 30
0.0
 11
233.454636
 21
203.068192
 31
0.0
210
0.0
220
0.0
230
1.0
  0
LINE
  5
74
100
AcDbEntity
  8
0
370
    35
390
0
 62
     7
 48
0.015436
100
AcDbLine
 10
233.454636
 20
203.068192
 30
0.0
 11
233.191254
 21
202.509766
 31
0.0
210
0.0
220
0.0
230
1.0
  0
LINE
  5
75
100
AcDbEntity
  8
0
370
    35
390
0
 62
     7
 48
0.015336
100
AcDbLine
 10
233.191254
 20
202.509766
 30
0.0
 11
232.906647
 21
201.966354
 31
0.0
210
0.0
220
0.0
230
1.0
  0
LINE
  5
76
100
AcDbEntity
  8
0
370
    35
390
0
 62
     7
 48
0.015263
100
AcDbLine
 10
232.906647
 20
201.966354
 30
0.0
 11
232.600784
 21
201.437973
 31
0.0
210
0.0
220
0.0
230
1.0
  0
LINE
  5
77
100
AcDbEntity
  8
0
370
    35
390
0
 62
     7
 48
0.015218
100
AcDbLine
 10
232.600784
 20
201.437973
 30
0.0
 11
232.273682
 21
200.924606
 31
0.0
210
0.0
220
0.0
230
1.0
  0
LINE
  5
78
100
AcDbEntity
  8
0
370
    35
390
0
 62
     7
 48
0.015201
100
AcDbLine
 10
232.273682
 20
200.924606
 30
0.0
 11
231.925323
 21
200.426254
 31
0.0
210
0.0
220
0.0
230
1.0
  0
LINE
  5
79
100
AcDbEntity
  8
0
370
    35
390
0
 62
     7
 48
0.015673
100
AcDbLine
 10
231.925323
 20
200.426254
 30
0.0
 11
231.539963
 21
199.931747
 31
0.0
210
0.0
220
0.0
230
1.0
  0
LINE
  5
7A
100
AcDbEntity
  8
0
370
    35
390
0
 62
     7
 48
0.01562
100
AcDbLine
 10
231.539963
 20
199.931747
 30
0.0
 11
231.13118
 21
199.459213
 31
0.0
210
0.0
220
0.0
230
1.0
  0
LINE
  5
7B
100
AcDbEntity
  8
0
370
    35
390
0
 62
     7
 48
0.015609
100
AcDbLine
 10
231.13118
 20
199.459213
 30
0.0
 11
230.698944
 21
199.008667
 31
0.0
210
0.0
220
0.0
230
1.0
  0
LINE
  5
7C
100
AcDbEntity
  8
0
370
    35
390
0
 62
     7
 48
0.015638
100
AcDbLine
 10
230.698944
 20
199.008667
 30
0.0
 11
230.243286
 21
198.580093
 31
0.0
210
0.0
220
0.0
230
1.0
  0
LINE
  5
7D
100
AcDbEntity
  8
0
370
    35
390
0
 62
     7
 48
0.01571
100
AcDbLine
 10
230.243286
 20
198.580093
 30
0.0
 11
229.76416
 21
198.173508
 31
0.0
210
0.0
220
0.0
230
1.0
  0
LINE
  5
7E
100
AcDbEntity
  8
0
370
    35
390
0
 62
     7
 48
0.015821
100
AcDbLine
 10
229.76416
 20
198.173508
 30
0.0
 11
229.261597
 21
197.788879
 31
0.0
210
0.0
220
0.0
230
1.0
  0
LINE
  5
7F
100
AcDbEntity
  8
0
370
    35
390
0
 62
     7
 48
0.015972
100
AcDbLine
 10
229.261597
 20
197.788879
 30
0.0
 11
228.73558
 21
197.426254
 31
0.0
210
0.0
220
0.0
230
1.0
  0
LINE
  5
80
100
AcDbEntity
  8
0
370
    35
390
0
 62
     7
 48
0.016162
100
AcDbLine
 10
228.73558
 20
197.426254
 30
0.0
 11
228.186127
 21
197.085587
 31
0.0
210
0.0
220
0.0
230
1.0
  0
LINE
  5
81
100
AcDbEntity
  8
0
370
    35
390
0
 62
     7
 48
0.016389
100
AcDbLine
 10
228.186127
 20
197.085587
 30
0.0
 11
227.613235
 21
196.766907
 31
0.0
210
0.0
220
0.0
230
1.0
  0
LINE
  5
82
100
AcDbEntity
  8
0
370
    35
390
0
 62
     7
 48
0.016652
100
AcDbLine
 10
227.613235
 20
196.766907
 30
0.0
 11
227.016907
 21
196.4702
 31
0.0
210
0.0
220
0.0
230
1.0
  0
LINE
  5
83
100
AcDbEntity
  8
0
370
    35
390
0
 62
     7
 48
0.017234
100
AcDbLine
 10
227.016907
 20
196.4702
 30
0.0
 11
226.383209
 21
196.198776
 31
0.0
210
0.0
220
0.0
230
1.0
  0
LINE
  5
84
100
AcDbEntity
  8
0
370
    35
390
0
 62
     7
 48
0.017137
100
AcDbLine
 10
226.383209
 20
196.198776
 30
0.0
 11
225.742172
 21
195.955917
 31
0.0
210
0.0
220
0.0
230
1.0
  0
LINE
  5
85
100
AcDbEntity
  8
0
370
    35
390
0
 62
     7
 48
0.017071
100
AcDbLine
 10
225.742172
 20
195.955917
 30
0.0
 11
225.093811
 21
195.741638
 31
0.0
210
0.0
220
0.0
230
1.0
  0
LINE
  5
86
100
AcDbEntity
  8
0
370
    35
390
0
 62
     7
 48
0.017037
100
AcDbLine
 10
225.093811
 20
195.741638
 30
0.0
 11
224.438141
 21
195.555923
 31
0.0
210
0.0
220
0.0
230
1.0
  0
LINE
  5
87
100
AcDbEntity
  8
0
370
    35
390
0
 62
     7
 48
0.017034
100
AcDbLine
 10
224.438141
 20
195.555923
 30
0.0
 11
223.775131
 21
195.398773
 31
0.0
210
0.0
220
0.0
230
1.0
  0
LINE
  5
88
100
AcDbEntity
  8
0
370
    35
390
0
 62
     7
 48
0.017064
100
AcDbLine
 10
223.775131
 20
195.398773
 30
0.0
 11
223.104797
 21
195.270203
 31
0.0
210
0.0
220
0.0
230
1.0
  0
LINE
  5
89
100
AcDbEntity
  8
0
370
    35
390
0
 62
     7
 48
0.017125
100
AcDbLine
 10
223.104797
 20
195.270203
 30
0.0
 11
222.427155
 21
195.170212
 31
0.0
210
0.0
220
0.0
230
1.0
  0
LINE
  5
8A
100
AcDbEntity
  8
0
370
    35
390
0
 62
     7
 48
0.061547
100
AcDbLine
 10
235.99382
 20
158.524414
 30
0.0
 11
235.781738
 21
156.071671
 31
0.0
210
0.0
220
0.0
230
1.0
  0
LINE
  5
8B
100
AcDbEntity
  8
0
370
    35
390
0
 62
     7
 48
0.059271
100
AcDbLine
 10
235.781738
 20
156.071671
 30
0.0
 11
235.428253
 21
153.727341
 31
0.0
210
0.0
220
0.0
230
1.0
  0
LINE
  5
8C
100
AcDbEntity
  8
0
370
    35
390
0
 62
     7
 48
0.05725
100
AcDbLine
 10
235.428253
 20
153.727341
 30
0.0
 11
234.93338
 21
151.491455
 31
0.0
210
0.0
220
0.0
230
1.0
  0
LINE
  5
8D
100
AcDbEntity
  8
0
370
    35
390
0
 62
     7
 48
0.055515
100
AcDbLine
 10
234.93338
 20
151.491455
 30
0.0
 11
234.297119
 21
149.363968
 31
0.0
210
0.0
220
0.0
230
1.0
  0
LINE
  5
8E
100
AcDbEntity
  8
0
370
    35
390
0
 62
     7
 48
0.054091
100
AcDbLine
 10
234.297119
 20
149.363968
 30
0.0
 11
233.519455
 21
147.344925
 31
0.0
210
0.0
220
0.0
230
1.0
  0
LINE
  5
8F
100
AcDbEntity
  8
0
370
    35
390
0
 62
     7
 48
0.053004
100
AcDbLine
 10
233.519455
 20
147.344925
 30
0.0
 11
232.600418
 21
145.434296
 31
0.0
210
0.0
220
0.0
230
1.0
  0
LINE
  5
90
100
AcDbEntity
  8
0
370
    35
390
0
 62
     7
 48
0.052276
100
AcDbLine
 10
232.600418
 20
145.434296
 30
0.0
 11
231.539963
 21
143.632111
 31
0.0
210
0.0
220
0.0
230
1.0
  0
LINE
  5
91
100
AcDbEntity
  8
0
370
    35
390
0
 62
     7
 48
0.051921
100
AcDbLine
 10
231.539963
 20
143.632111
 30
0.0
 11
230.338135
 21
141.938339
 31
0.0
210
0.0
220
0.0
230
1.0
  0
LINE
  5
92
100
AcDbEntity
  8
0
370
    35
390
0
 62
     7
 48
0.051947
100
AcDbLine
 10
230.338135
 20
141.938339
 30
0.0
 11
228.994919
 21
140.352982
 31
0.0
210
0.0
220
0.0
230
1.0
  0
LINE
  5
93
100
AcDbEntity
  8
0
370
    35
390
0
 62
     7
 48
0.054115
100
AcDbLine
 10
228.994919
 20
140.352982
 30
0.0
 11
227.471832
 21
138.814896
 31
0.0
210
0.0
220
0.0
230
1.0
  0
LINE
  5
94
100
AcDbEntity
  8
0
370
    35
390
0
 62
     7
 48
0.052941
100
AcDbLine
 10
227.471832
 20
138.814896
 30
0.0
 11
225.86232
 21
137.43869
 31
0.0
210
0.0
220
0.0
230
1.0
  0
LINE
  5
95
100
AcDbEntity
  8
0
370
    35
390
0
 62
     7
 48
0.052146
100
AcDbLine
 10
225.86232
 20
137.43869
 30
0.0
 11
224.166351
 21
136.224411
 31
0.0
210
0.0
220
0.0
230
1.0
  0
LINE
  5
96
100
AcDbEntity
  8
0
370
    35
390
0
 62
     7
 48
0.051748
100
AcDbLine
 10
224.166351
 20
136.224411
 30
0.0
 11
222.383926
 21
135.172028
 31
0.0
210
0.0
220
0.0
230
1.0
  0
LINE
  5
97
100
AcDbEntity
  8
0
370
    35
390
0
 62
     7
 48
0.051754
100
AcDbLine
 10
222.383926
 20
135.172028
 30
0.0
 11
220.51506
 21
134.281555
 31
0.0
210
0.0
220
0.0
230
1.0
  0
LINE
  5
98
100
AcDbEntity
  8
0
370
    35
390
0
 62
     7
 48
0.052166
100
AcDbLine
 10
220.51506
 20
134.281555
 30
0.0
 11
218.559753
 21
133.552979
 31
0.0
210
0.0
220
0.0
230
1.0
  0
LINE
  5
99
100
AcDbEntity
  8
0
370
    35
390
0
 62
     7
 48
0.052973
100
AcDbLine
 10
218.559753
 20
133.552979
 30
0.0
 11
216.51799
 21
132.986328
 31
0.0
210
0.0
220
0.0
230
1.0
  0
LINE
  5
9A
100
AcDbEntity
  8
0
370
    35
390
0
 62
     7
 48
0.054159
100
AcDbLine
 10
216.51799
 20
132.986328
 30
0.0
 11
214.389786
 21
132.581543
 31
0.0
210
0.0
220
0.0
230
1.0
  0
LINE
  5
9B
100
AcDbEntity
  8
0
370
    35
390
0
 62
     7
 48
0.055698
100
AcDbLine
 10
214.389786
 20
132.581543
 30
0.0
 11
212.17514
 21
132.338699
 31
0.0
210
0.0
220
0.0
230
1.0
  0
LINE
  5
9C
100
AcDbEntity
  8
0
370
    35
390
0
 62
     7
 48
0.057563
100
AcDbLine
 10
212.17514
 20
132.338699
 30
0.0
 11
209.874039
 21
132.257751
 31
0.0
210
0.0
220
0.0
230
1.0
  0
LINE
  5
9D
100
AcDbEntity
  8
0
370
    35
390
0
 62
     7
 48
0.035673
100
AcDbLine
 10
209.874039
 20
132.257751
 30
0.0
 11
208.447662
 21
132.296585
 31
0.0
210
0.0
220
0.0
230
1.0
  0
LINE
  5
9E
100
AcDbEntity
  8
0
370
    35
390
0
 62
     7
 48
0.035304
100
AcDbLine
 10
208.447662
 20
132.296585
 30
0.0
 11
207.040329
 21
132.413055
 31
0.0
210
0.0
220
0.0
230
1.0
  0
LINE
  5
9F
100
AcDbEntity
  8
0
370
    35
390
0
 62
     7
 48
0.035045
100
AcDbLine
 10
207.040329
 20
132.413055
 30
0.0
 11
205.652054
 21
132.607193
 31
0.0
210
0.0
220
0.0
230
1.0
  0
LINE
  5
A0
100
AcDbEntity
  8
0
370
    35
390
0
 62
     7
 48
0.034899
100
AcDbLine
 10
205.652054
 20
132.607193
 30
0.0
 11
204.282822
 21
132.878983
 31
0.0
210
0.0
220
0.0
230
1.0
  0
LINE
  5
A1
100
AcDbEntity
  8
0
370
    35
390
0
 62
     7
 48
0.034867
100
AcDbLine
 10
204.282822
 20
132.878983
 30
0.0
 11
202.932648
 21
133.228439
 31
0.0
210
0.0
220
0.0
230
1.0
  0
LINE
  5
A2
100
AcDbEntity
  8
0
370
    35
390
0
 62
     7
 48
0.03495
100
AcDbLine
 10
202.932648
 20
133.228439
 30
0.0
 11
201.601501
 21
133.655548
 31
0.0
210
0.0
220
0.0
230
1.0
  0
LINE
  5
A3
100
AcDbEntity
  8
0
370
    35
390
0
 62
     7
 48
0.035145
100
AcDbLine
 10
201.601501
 20
133.655548
 30
0.0
 11
200.289429
 21
134.160309
 31
0.0
210
0.0
220
0.0
230
1.0
  0
LINE
  5
A4
100
AcDbEntity
  8
0
370
    35
390
0
 62
     7
 48
0.035454
100
AcDbLine
 10
200.289429
 20
134.160309
 30
0.0
 11
198.996384
 21
134.742722
 31
0.0
210
0.0
220
0.0
230
1.0
  0
LINE
  5
A5
100
AcDbEntity
  8
0
370
    35
390
0
 62
     7
 48
0.035871
100
AcDbLine
 10
198.996384
 20
134.742722
 30
0.0
 11
197.722382
 21
135.402802
 31
0.0
210
0.0
220
0.0
230
1.0
  0
LINE
  5
A6
100
AcDbEntity
  8
0
370
    35
390
0
 62
     7
 48
0.036393
100
AcDbLine
 10
197.722382
 20
135.402802
 30
0.0
 11
196.467438
 21
136.140533
 31
0.0
210
0.0
220
0.0
230
1.0
  0
LINE
  5
A7
100
AcDbEntity
  8
0
370
    35
390
0
 62
     7
 48
0.070456
100
AcDbLine
 10
196.467438
 20
136.140533
 30
0.0
 11
194.156815
 21
137.754074
 31
0.0
210
0.0
220
0.0
230
1.0
  0
LINE
  5
A8
100
AcDbEntity
  8
0
370
    35
390
0
 62
     7
 48
0.068656
100
AcDbLine
 10
194.156815
 20
137.754074
 30
0.0
 11
192.089417
 21
139.561768
 31
0.0
210
0.0
220
0.0
230
1.0
  0
LINE
  5
A9
100
AcDbEntity
  8
0
370
    35
390
0
 62
     7
 48
0.067708
100
AcDbLine
 10
192.089417
 20
139.561768
 30
0.0
 11
190.265244
 21
141.563614
 31
0.0
210
0.0
220
0.0
230
1.0
  0
LINE
  5
AA
100
AcDbEntity
  8
0
370
    35
390
0
 62
     7
 48
0.067646
100
AcDbLine
 10
190.265244
 20
141.563614
 30
0.0
 11
188.684296
 21
143.759583
 31
0.0
210
0.0
220
0.0
230
1.0
  0
LINE
  5
AB
100
AcDbEntity
  8
0
370
    35
390
0
 62
     7
 48
0.068475
100
AcDbLine
 10
188.684296
 20
143.759583
 30
0.0
 11
187.346558
 21
146.149689
 31
0.0
210
0.0
220
0.0
230
1.0
  0
LINE
  5
AC
100
AcDbEntity
  8
0
370
    35
390
0
 62
     7
 48
0.070162
100
AcDbLine
 10
187.346558
 20
146.149689
 30
0.0
 11
186.25206
 21
148.733932
 31
0.0
210
0.0
220
0.0
230
1.0
  0
LINE
  5
AD
100
AcDbEntity
  8
0
370
    35
390
0
 62
     7
 48
0.072647
100
AcDbLine
 10
186.25206
 20
148.733932
 30
0.0
 11
185.400772
 21
151.512329
 31
0.0
210
0.0
220
0.0
230
1.0
  0
LINE
  5
AE
100
AcDbEntity
  8
0
370
    35
390
0
 62
     7
 48
0.075852
100
AcDbLine
 10
185.400772
 20
151.512329
 30
0.0
 11
184.792725
 21
154.484848
 31
0.0
210
0.0
220
0.0
230
1.0
  0
LINE
  5
AF
100
AcDbEntity
  8
0
370
    35
390
0
 62
     7
 48
0.07969
100
AcDbLine
 10
184.792725
 20
154.484848
 30
0.0
 11
184.427887
 21
157.65152
 31
0.0
210
0.0
220
0.0
230
1.0
  0
LINE
  5
B0
100
AcDbEntity
  8
0
370
    35
390
0
 62
     7
 48
0.061082
100
AcDbLine
 10
184.376968
 20
163.552628
 30
0.0
 11
184.58905
 21
165.986694
 31
0.0
210
0.0
220
0.0
230
1.0
  0
LINE
  5
B1
100
AcDbEntity
  8
0
370
    35
390
0
 62
     7
 48
0.058863
100
AcDbLine
 10
184.58905
 20
165.986694
 30
0.0
 11
184.942535
 21
168.314529
 31
0.0
210
0.0
220
0.0
230
1.0
  0
LINE
  5
B2
100
AcDbEntity
  8
0
370
    35
390
0
 62
     7
 48
0.056902
100
AcDbLine
 10
184.942535
 20
168.314529
 30
0.0
 11
185.437408
 21
170.536148
 31
0.0
210
0.0
220
0.0
230
1.0
  0
LINE
  5
B3
100
AcDbEntity
  8
0
370
    35
390
0
 62
     7
 48
0.055225
100
AcDbLine
 10
185.437408
 20
170.536148
 30
0.0
 11
186.073669
 21
172.651535
 31
0.0
210
0.0
220
0.0
230
1.0
  0
LINE
  5
B4
100
AcDbEntity
  8
0
370
    35
390
0
 62
     7
 48
0.05386
100
AcDbLine
 10
186.073669
 20
172.651535
 30
0.0
 11
186.851334
 21
174.660675
 31
0.0
210
0.0
220
0.0
230
1.0
  0
LINE
  5
B5
100
AcDbEntity
  8
0
370
    35
390
0
 62
     7
 48
0.052831
100
AcDbLine
 10
186.851334
 20
174.660675
 30
0.0
 11
187.77037
 21
176.563614
 31
0.0
210
0.0
220
0.0
230
1.0
  0
LINE
  5
B6
100
AcDbEntity
  8
0
370
    35
390
0
 62
     7
 48
0.052158
100
AcDbLine
 10
187.77037
 20
176.563614
 30
0.0
 11
188.830811
 21
178.360321
 31
0.0
210
0.0
220
0.0
230
1.0
  0
LINE
  5
B7
100
AcDbEntity
  8
0
370
    35
390
0
 62
     7
 48
0.051854
100
AcDbLine
 10
188.830811
 20
178.360321
 30
0.0
 11
190.032654
 21
180.050797
 31
0.0
210
0.0
220
0.0
230
1.0
  0
LINE
  5
B8
100
AcDbEntity
  8
0
370
    35
390
0
 62
     7
 48
0.051926
100
AcDbLine
 10
190.032654
 20
180.050797
 30
0.0
 11
191.37587
 21
181.63504
 31
0.0
210
0.0
220
0.0
230
1.0
  0
LINE
  5
B9
100
AcDbEntity
  8
0
370
    35
390
0
 62
     7
 48
0.027765
100
AcDbLine
 10
191.37587
 20
181.63504
 30
0.0
 11
192.145477
 21
182.435776
 31
0.0
210
0.0
220
0.0
230
1.0
  0
LINE
  5
BA
100
AcDbEntity
  8
0
370
    35
390
0
 62
     7
 48
0.0276
100
AcDbLine
 10
192.145477
 20
182.435776
 30
0.0
 11
192.945099
 21
183.196945
 31
0.0
210
0.0
220
0.0
230
1.0
  0
LINE
  5
BB
100
AcDbEntity
  8
0
370
    35
390
0
 62
     7
 48
0.02749
100
AcDbLine
 10
192.945099
 20
183.196945
 30
0.0
 11
193.77478
 21
183.918564
 31
0.0
210
0.0
220
0.0
230
1.0
  0
LINE
  5
BC
100
AcDbEntity
  8
0
370
    35
390
0
 62
     7
 48
0.027435
100
AcDbLine
 10
193.77478
 20
183.918564
 30
0.0
 11
194.634476
 21
184.600616
 31
0.0
210
0.0
220
0.0
230
1.0
  0
LINE
  5
BD
100
AcDbEntity
  8
0
370
    35
390
0
 62
     7
 48
0.027437
100
AcDbLine
 10
194.634476
 20
184.600616
 30
0.0
 11
195.524216
 21
185.243103
 31
0.0
210
0.0
220
0.0
230
1.0
  0
LINE
  5
BE
100
AcDbEntity
  8
0
370
    35
390
0
 62
     7
 48
0.027495
100
AcDbLine
 10
195.524216
 20
185.243103
 30
0.0
 11
196.444
 21
185.846039
 31
0.0
210
0.0
220
0.0
230
1.0
  0
LINE
  5
BF
100
AcDbEntity
  8
0
370
    35
390
0
 62
     7
 48
0.027608
100
AcDbLine
 10
196.444
 20
185.846039
 30
0.0
 11
197.393814
 21
186.409409
 31
0.0
210
0.0
220
0.0
230
1.0
  0
LINE
  5
C0
100
AcDbEntity
  8
0
370
    35
390
0
 62
     7
 48
0.027777
100
AcDbLine
 10
197.393814
 20
186.409409
 30
0.0
 11
198.373672
 21
186.933212
 31
0.0
210
0.0
220
0.0
230
1.0
  0
LINE
  5
C1
100
AcDbEntity
  8
0
370
    35
390
0
 62
     7
 48
0.028
100
AcDbLine
 10
198.373672
 20
186.933212
 30
0.0
 11
199.38356
 21
187.417465
 31
0.0
210
0.0
220
0.0
230
1.0
  0
LINE
  5
C2
100
AcDbEntity
  8
0
370
    35
390
0
 62
     7
 48
0.028275
100
AcDbLine
 10
199.38356
 20
187.417465
 30
0.0
 11
200.423492
 21
187.862152
 31
0.0
210
0.0
220
0.0
230
1.0
  0
LINE
  5
C3
100
AcDbEntity
  8
0
370
    35
390
0
 62
     7
 48
0.025007
100
AcDbLine
 10
200.423492
 20
187.862152
 30
0.0
 11
201.358658
 21
188.217102
 31
0.0
210
0.0
220
0.0
230
1.0
  0
LINE
  5
C4
100
AcDbEntity
  8
0
370
    35
390
0
 62
     7
 48
0.024916
100
AcDbLine
 10
201.358658
 20
188.217102
 30
0.0
 11
202.303345
 21
188.534683
 31
0.0
210
0.0
220
0.0
230
1.0
  0
LINE
  5
C5
100
AcDbEntity
  8
0
370
    35
390
0
 62
     7
 48
0.024863
100
AcDbLine
 10
202.303345
 20
188.534683
 30
0.0
 11
203.257553
 21
188.814896
 31
0.0
210
0.0
220
0.0
230
1.0
  0
LINE
  5
C6
100
AcDbEntity
  8
0
370
    35
390
0
 62
     7
 48
0.024846
100
AcDbLine
 10
203.257553
 20
188.814896
 30
0.0
 11
204.221283
 21
189.057755
 31
0.0
210
0.0
220
0.0
230
1.0
  0
LINE
  5
C7
100
AcDbEntity
  8
0
370
    35
390
0
 62
     7
 48
0.024868
100
AcDbLine
 10
204.221283
 20
189.057755
 30
0.0
 11
205.19455
 21
189.26326
 31
0.0
210
0.0
220
0.0
230
1.0
  0
LINE
  5
C8
100
AcDbEntity
  8
0
370
    35
390
0
 62
     7
 48
0.024927
100
AcDbLine
 10
205.19455
 20
189.26326
 30
0.0
 11
206.177338
 21
189.431381
 31
0.0
210
0.0
220
0.0
230
1.0
  0
LINE
  5
C9
100
AcDbEntity
  8
0
370
    35
390
0
 62
     7
 48
0.025022
100
AcDbLine
 10
206.177338
 20
189.431381
 30
0.0
 11
207.169632
 21
189.562149
 31
0.0
210
0.0
220
0.0
230
1.0
  0
LINE
  5
CA
100
AcDbEntity
  8
0
370
    35
390
0
 62
     7
 48
0.025155
100
AcDbLine
 10
207.169632
 20
189.562149
 30
0.0
 11
208.171478
 21
189.655563
 31
0.0
210
0.0
220
0.0
230
1.0
  0
LINE
  5
CB
100
AcDbEntity
  8
0
370
    35
390
0
 62
     7
 48
0.025323
100
AcDbLine
 10
208.171478
 20
189.655563
 30
0.0
 11
209.182831
 21
189.711609
 31
0.0
210
0.0
220
0.0
230
1.0
  0
LINE
  5
CC
100
AcDbEntity
  8
0
370
    35
390
0
 62
     7
 48
0.025526
100
AcDbLine
 10
209.182831
 20
189.711609
 30
0.0
 11
210.203705
 21
189.73027
 31
0.0
210
0.0
220
0.0
230
1.0
  0
LINE
  5
CD
100
AcDbEntity
  8
0
370
    35
390
0
 62
     7
 48
0.037238
100
AcDbLine
 10
210.203705
 20
189.73027
 30
0.0
 11
211.692719
 21
189.691818
 31
0.0
210
0.0
220
0.0
230
1.0
  0
LINE
  5
CE
100
AcDbEntity
  8
0
370
    35
390
0
 62
     7
 48
0.036698
100
AcDbLine
 10
211.692719
 20
189.691818
 30
0.0
 11
213.156082
 21
189.576431
 31
0.0
210
0.0
220
0.0
230
1.0
  0
LINE
  5
CF
100
AcDbEntity
  8
0
370
    35
390
0
 62
     7
 48
0.036263
100
AcDbLine
 10
213.156082
 20
189.576431
 30
0.0
 11
214.593811
 21
189.384125
 31
0.0
210
0.0
220
0.0
230
1.0
  0
LINE
  5
D0
100
AcDbEntity
  8
0
370
    35
390
0
 62
     7
 48
0.035938
100
AcDbLine
 10
214.593811
 20
189.384125
 30
0.0
 11
216.005905
 21
189.114883
 31
0.0
210
0.0
220
0.0
230
1.0
  0
LINE
  5
D1
100
AcDbEntity
  8
0
370
    35
390
0
 62
     7
 48
0.035725
100
AcDbLine
 10
216.005905
 20
189.114883
 30
0.0
 11
217.392349
 21
188.768738
 31
0.0
210
0.0
220
0.0
230
1.0
  0
LINE
  5
D2
100
AcDbEntity
  8
0
370
    35
390
0
 62
     7
 48
0.035627
100
AcDbLine
 10
217.392349
 20
188.768738
 30
0.0
 11
218.753159
 21
188.345657
 31
0.0
210
0.0
220
0.0
230
1.0
  0
LINE
  5
D3
100
AcDbEntity
  8
0
370
    35
390
0
 62
     7
 48
0.035643
100
AcDbLine
 10
218.753159
 20
188.345657
 30
0.0
 11
220.088318
 21
187.845657
 31
0.0
210
0.0
220
0.0
230
1.0
  0
LINE
  5
D4
100
AcDbEntity
  8
0
370
    35
390
0
 62
     7
 48
0.035774
100
AcDbLine
 10
220.088318
 20
187.845657
 30
0.0
 11
221.397842
 21
187.268738
 31
0.0
210
0.0
220
0.0
230
1.0
  0
LINE
  5
D5
100
AcDbEntity
  8
0
370
    35
390
0
 62
     7
 48
0.03602
100
AcDbLine
 10
221.397842
 20
187.268738
 30
0.0
 11
222.681732
 21
186.614883
 31
0.0
210
0.0
220
0.0
230
1.0
  0
LINE
  5
D6
100
AcDbEntity
  8
0
370
    35
390
0
 62
     7
 48
0.036376
100
AcDbLine
 10
222.681732
 20
186.614883
 30
0.0
 11
223.939972
 21
185.884125
 31
0.0
210
0.0
220
0.0
230
1.0
  0
LINE
  5
D7
100
AcDbEntity
  8
0
370
    35
390
0
 62
     7
 48
0.068926
100
AcDbLine
 10
223.939972
 20
185.884125
 30
0.0
 11
226.204086
 21
184.310867
 31
0.0
210
0.0
220
0.0
230
1.0
  0
LINE
  5
D8
100
AcDbEntity
  8
0
370
    35
390
0
 62
     7
 48
0.067417
100
AcDbLine
 10
226.204086
 20
184.310867
 30
0.0
 11
228.234482
 21
182.536133
 31
0.0
210
0.0
220
0.0
230
1.0
  0
LINE
  5
D9
100
AcDbEntity
  8
0
370
    35
390
0
 62
     7
 48
0.066771
100
AcDbLine
 10
228.234482
 20
182.536133
 30
0.0
 11
230.031174
 21
180.559952
 31
0.0
210
0.0
220
0.0
230
1.0
  0
LINE
  5
DA
100
AcDbEntity
  8
0
370
    35
390
0
 62
     7
 48
0.067013
100
AcDbLine
 10
230.031174
 20
180.559952
 30
0.0
 11
231.594177
 21
178.382294
 31
0.0
210
0.0
220
0.0
230
1.0
  0
LINE
  5
DB
100
AcDbEntity
  8
0
370
    35
390
0
 62
     7
 48
0.068133
100
AcDbLine
 10
231.594177
 20
178.382294
 30
0.0
 11
232.923492
 21
176.003174
 31
0.0
210
0.0
220
0.0
230
1.0
  0
LINE
  5
DC
100
AcDbEntity
  8
0
370
    35
390
0
 62
     7
 48
0.070088
100
AcDbLine
 10
232.923492
 20
176.003174
 30
0.0
 11
234.019089
 21
173.422592
 31
0.0
210
0.0
220
0.0
230
1.0
  0
LINE
  5
DD
100
AcDbEntity
  8
0
370
    35
390
0
 62
     7
 48
0.072813
100
AcDbLine
 10
234.019089
 20
173.422592
 30
0.0
 11
234.880997
 21
170.640533
 31
0.0
210
0.0
220
0.0
230
1.0
  0
LINE
  5
DE
100
AcDbEntity
  8
0
370
    35
390
0
 62
     7
 48
0.076224
100
AcDbLine
 10
234.880997
 20
170.640533
 30
0.0
 11
235.509216
 21
167.657013
 31
0.0
210
0.0
220
0.0
230
1.0
  0
LINE
  5
DF
100
AcDbEntity
  8
0
370
    35
390
0
 62
     7
 48
0.080233
100
AcDbLine
 10
235.509216
 20
167.657013
 30
0.0
 11
235.903702
 21
164.472031
 31
0.0
210
0.0
220
0.0
230
1.0
  0
LINE
  5
E0
100
AcDbEntity
  8
0
370
    35
390
0
 62
     7
 48
0.023959
100
AcDbLine
 10
218.378067
 20
73.574959
 30
0.0
 11
217.429352
 21
73.710503
 31
0.0
210
0.0
220
0.0
230
1.0
  0
LINE
  5
E1
100
AcDbEntity
  8
0
370
    35
390
0
 62
     7
 48
0.023577
100
AcDbLine
 10
217.429352
 20
73.710503
 30
0.0
 11
216.505539
 21
73.90023
 31
0.0
210
0.0
220
0.0
230
1.0
  0
LINE
  5
E2
100
AcDbEntity
  8
0
370
    35
390
0
 62
     7
 48
0.023285
100
AcDbLine
 10
216.505539
 20
73.90023
 30
0.0
 11
215.606644
 21
74.144188
 31
0.0
210
0.0
220
0.0
230
1.0
  0
LINE
  5
E3
100
AcDbEntity
  8
0
370
    35
390
0
 62
     7
 48
0.023087
100
AcDbLine
 10
215.606644
 20
74.144188
 30
0.0
 11
214.732635
 21
74.442375
 31
0.0
210
0.0
220
0.0
230
1.0
  0
LINE
  5
E4
100
AcDbEntity
  8
0
370
    35
390
0
 62
     7
 48
0.022982
100
AcDbLine
 10
214.732635
 20
74.442375
 30
0.0
 11
213.88356
 21
74.794731
 31
0.0
210
0.0
220
0.0
230
1.0
  0
LINE
  5
E5
100
AcDbEntity
  8
0
370
    35
390
0
 62
     7
 48
0.022975
100
AcDbLine
 10
213.88356
 20
74.794731
 30
0.0
 11
213.059387
 21
75.201332
 31
0.0
210
0.0
220
0.0
230
1.0
  0
LINE
  5
E6
100
AcDbEntity
  8
0
370
    35
390
0
 62
     7
 48
0.023065
100
AcDbLine
 10
213.059387
 20
75.201332
 30
0.0
 11
212.260117
 21
75.662148
 31
0.0
210
0.0
220
0.0
230
1.0
  0
LINE
  5
E7
100
AcDbEntity
  8
0
370
    35
390
0
 62
     7
 48
0.023249
100
AcDbLine
 10
212.260117
 20
75.662148
 30
0.0
 11
211.485764
 21
76.177162
 31
0.0
210
0.0
220
0.0
230
1.0
  0
LINE
  5
E8
100
AcDbEntity
  8
0
370
    35
390
0
 62
     7
 48
0.019925
100
AcDbLine
 10
211.485764
 20
76.177162
 30
0.0
 11
210.8526
 21
76.661217
 31
0.0
210
0.0
220
0.0
230
1.0
  0
LINE
  5
E9
100
AcDbEntity
  8
0
370
    35
390
0
 62
     7
 48
0.019672
100
AcDbLine
 10
210.8526
 20
76.661217
 30
0.0
 11
210.257187
 21
77.175682
 31
0.0
210
0.0
220
0.0
230
1.0
  0
LINE
  5
EA
100
AcDbEntity
  8
0
370
    35
390
0
 62
     7
 48
0.019492
100
AcDbLine
 10
210.257187
 20
77.175682
 30
0.0
 11
209.699493
 21
77.720558
 31
0.0
210
0.0
220
0.0
230
1.0
  0
LINE
  5
EB
100
AcDbEntity
  8
0
370
    35
390
0
 62
     7
 48
0.019386
100
AcDbLine
 10
209.699493
 20
77.720558
 30
0.0
 11
209.179535
 21
78.29583
 31
0.0
210
0.0
220
0.0
230
1.0
  0
LINE
  5
EC
100
AcDbEntity
  8
0
370
    35
390
0
 62
     7
 48
0.019356
100
AcDbLine
 10
209.179535
 20
78.29583
 30
0.0
 11
208.697296
 21
78.901527
 31
0.0
210
0.0
220
0.0
230
1.0
  0
LINE
  5
ED
100
AcDbEntity
  8
0
370
    35
390
0
 62
     7
 48
0.0194
100
AcDbLine
 10
208.697296
 20
78.901527
 30
0.0
 11
208.252792
 21
79.537605
 31
0.0
210
0.0
220
0.0
230
1.0
  0
LINE
  5
EE
100
AcDbEntity
  8
0
370
    35
390
0
 62
     7
 48
0.019521
100
AcDbLine
 10
208.252792
 20
79.537605
 30
0.0
 11
207.846008
 21
80.204094
 31
0.0
210
0.0
220
0.0
230
1.0
  0
LINE
  5
EF
100
AcDbEntity
  8
0
370
    35
390
0
 62
     7
 48
0.019714
100
AcDbLine
 10
207.846008
 20
80.204094
 30
0.0
 11
207.476959
 21
80.900963
 31
0.0
210
0.0
220
0.0
230
1.0
  0
LINE
  5
F0
100
AcDbEntity
  8
0
370
    35
390
0
 62
     7
 48
0.01998
100
AcDbLine
 10
207.476959
 20
80.900963
 30
0.0
 11
207.145645
 21
81.628258
 31
0.0
210
0.0
220
0.0
230
1.0
  0
LINE
  5
F1
100
AcDbEntity
  8
0
370
    35
390
0
 62
     7
 48
0.020315
100
AcDbLine
 10
207.145645
 20
81.628258
 30
0.0
 11
206.852051
 21
82.385948
 31
0.0
210
0.0
220
0.0
230
1.0
  0
LINE
  5
F2
100
AcDbEntity
  8
0
370
    35
390
0
 62
     7
 48
0.02112
100
AcDbLine
 10
206.852051
 20
82.385948
 30
0.0
 11
206.591064
 21
83.18943
 31
0.0
210
0.0
220
0.0
230
1.0
  0
LINE
  5
F3
100
AcDbEntity
  8
0
370
    35
390
0
 62
     7
 48
0.022391
100
AcDbLine
 10
206.591064
 20
83.18943
 30
0.0
 11
206.357559
 21
84.054085
 31
0.0
210
0.0
220
0.0
230
1.0
  0
LINE
  5
F4
100
AcDbEntity
  8
0
370
    35
390
0
 62
     7
 48
0.023712
100
AcDbLine
 10
206.357559
 20
84.054085
 30
0.0
 11
206.151505
 21
84.979912
 31
0.0
210
0.0
220
0.0
230
1.0
  0
LINE
  5
F5
100
AcDbEntity
  8
0
370
    35
390
0
 62
     7
 48
0.025075
100
AcDbLine
 10
206.151505
 20
84.979912
 30
0.0
 11
205.972931
 21
85.966896
 31
0.0
210
0.0
220
0.0
230
1.0
  0
LINE
  5
F6
100
AcDbEntity
  8
0
370
    35
390
0
 62
     7
 48
0.026475
100
AcDbLine
 10
205.972931
 20
85.966896
 30
0.0
 11
205.821838
 21
87.015068
 31
0.0
210
0.0
220
0.0
230
1.0
  0
LINE
  5
F7
100
AcDbEntity
  8
0
370
    35
390
0
 62
     7
 48
0.027906
100
AcDbLine
 10
205.821838
 20
87.015068
 30
0.0
 11
205.698212
 21
88.124428
 31
0.0
210
0.0
220
0.0
230
1.0
  0
LINE
  5
F8
100
AcDbEntity
  8
0
370
    35
390
0
 62
     7
 48
0.029361
100
AcDbLine
 10
205.698212
 20
88.124428
 30
0.0
 11
205.602051
 21
89.29493
 31
0.0
210
0.0
220
0.0
230
1.0
  0
LINE
  5
F9
100
AcDbEntity
  8
0
370
    35
390
0
 62
     7
 48
0.03084
100
AcDbLine
 10
205.602051
 20
89.29493
 30
0.0
 11
205.533371
 21
90.526619
 31
0.0
210
0.0
220
0.0
230
1.0
  0
LINE
  5
FA
100
AcDbEntity
  8
0
370
    35
390
0
 62
     7
 48
0.032338
100
AcDbLine
 10
205.533371
 20
90.526619
 30
0.0
 11
205.492172
 21
91.819481
 31
0.0
210
0.0
220
0.0
230
1.0
  0
LINE
  5
FB
100
AcDbEntity
  8
0
370
    35
390
0
 62
     7
 48
0.033852
100
AcDbLine
 10
205.492172
 20
91.819481
 30
0.0
 11
205.478424
 21
93.1735
 31
0.0
210
0.0
220
0.0
230
1.0
  0
LINE
  5
FC
100
AcDbEntity
  8
0
370
    35
390
0
 62
     7
 48
0.448718
100
AcDbLine
 10
205.478424
 20
93.1735
 30
0.0
 11
205.478424
 21
111.122215
 31
0.0
210
0.0
220
0.0
230
1.0
  0
LINE
  5
FD
100
AcDbEntity
  8
0
370
    35
390
0
 62
     7
 48
0.412088
100
AcDbLine
 10
205.478424
 20
111.122215
 30
0.0
 11
188.994919
 21
111.122215
 31
0.0
210
0.0
220
0.0
230
1.0
  0
LINE
  5
FE
100
AcDbEntity
  8
0
370
    35
390
0
 62
     7
 48
0.026727
100
AcDbLine
 10
235.185394
 20
93.1735
 30
0.0
 11
235.17807
 21
92.104454
 31
0.0
210
0.0
220
0.0
230
1.0
  0
LINE
  5
FF
100
AcDbEntity
  8
0
370
    35
390
0
 62
     7
 48
0.025606
100
AcDbLine
 10
235.17807
 20
92.104454
 30
0.0
 11
235.156082
 21
91.080452
 31
0.0
210
0.0
220
0.0
230
1.0
  0
LINE
  5
100
100
AcDbEntity
  8
0
370
    35
390
0
 62
     7
 48
0.024491
100
AcDbLine
 10
235.156082
 20
91.080452
 30
0.0
 11
235.119461
 21
90.101509
 31
0.0
210
0.0
220
0.0
230
1.0
  0
LINE
  5
101
100
AcDbEntity
  8
0
370
    35
390
0
 62
     7
 48
0.023382
100
AcDbLine
 10
235.119461
 20
90.101509
 30
0.0
 11
235.068176
 21
89.167641
 31
0.0
210
0.0
220
0.0
230
1.0
  0
LINE
  5
102
100
AcDbEntity
  8
0
370
    35
390
0
 62
     7
 48
0.022282
100
AcDbLine
 10
235.068176
 20
89.167641
 30
0.0
 11
235.002243
 21
88.278816
 31
0.0
210
0.0
220
0.0
230
1.0
  0
LINE
  5
103
100
AcDbEntity
  8
0
370
    35
390
0
 62
     7
 48
0.02119
100
AcDbLine
 10
235.002243
 20
88.278816
 30
0.0
 11
234.921661
 21
87.435036
 31
0.0
210
0.0
220
0.0
230
1.0
  0
LINE
  5
104
100
AcDbEntity
  8
0
370
    35
390
0
 62
     7
 48
0.020109
100
AcDbLine
 10
234.921661
 20
87.435036
 30
0.0
 11
234.826416
 21
86.63633
 31
0.0
210
0.0
220
0.0
230
1.0
  0
LINE
  5
105
100
AcDbEntity
  8
0
370
    35
390
0
 62
     7
 48
0.019041
100
AcDbLine
 10
234.826416
 20
86.63633
 30
0.0
 11
234.716522
 21
85.882652
 31
0.0
210
0.0
220
0.0
230
1.0
  0
LINE
  5
106
100
AcDbEntity
  8
0
370
    35
390
0
 62
     7
 48
0.017987
100
AcDbLine
 10
234.716522
 20
85.882652
 30
0.0
 11
234.59198
 21
85.174049
 31
0.0
210
0.0
220
0.0
230
1.0
  0
LINE
  5
107
100
AcDbEntity
  8
0
370
    35
390
0
 62
     7
 48
0.01695
100
AcDbLine
 10
234.59198
 20
85.174049
 30
0.0
 11
234.452789
 21
84.51049
 31
0.0
210
0.0
220
0.0
230
1.0
  0
LINE
  5
108
100
AcDbEntity
  8
0
370
    35
390
0
 62
     7
 48
0.016318
100
AcDbLine
 10
234.452789
 20
84.51049
 30
0.0
 11
234.295639
 21
83.876976
 31
0.0
210
0.0
220
0.0
230
1.0
  0
LINE
  5
109
100
AcDbEntity
  8
0
370
    35
390
0
 62
     7
 48
0.016092
100
AcDbLine
 10
234.295639
 20
83.876976
 30
0.0
 11
234.117264
 21
83.258492
 31
0.0
210
0.0
220
0.0
230
1.0
  0
LINE
  5
10A
100
AcDbEntity
  8
0
370
    35
390
0
 62
     7
 48
0.015891
100
AcDbLine
 10
234.117264
 20
83.258492
 30
0.0
 11
233.917633
 21
82.655006
 31
0.0
210
0.0
220
0.0
230
1.0
  0
LINE
  5
10B
100
AcDbEntity
  8
0
370
    35
390
0
 62
     7
 48
0.015714
100
AcDbLine
 10
233.917633
 20
82.655006
 30
0.0
 11
233.696747
 21
82.066551
 31
0.0
210
0.0
220
0.0
230
1.0
  0
LINE
  5
10C
100
AcDbEntity
  8
0
370
    35
390
0
 62
     7
 48
0.015562
100
AcDbLine
 10
233.696747
 20
82.066551
 30
0.0
 11
233.45462
 21
81.493095
 31
0.0
210
0.0
220
0.0
230
1.0
  0
LINE
  5
10D
100
AcDbEntity
  8
0
370
    35
390
0
 62
     7
 48
0.015435
100
AcDbLine
 10
233.45462
 20
81.493095
 30
0.0
 11
233.191254
 21
80.934669
 31
0.0
210
0.0
220
0.0
230
1.0
  0
LINE
  5
10E
100
AcDbEntity
  8
0
370
    35
390
0
 62
     7
 48
0.015336
100
AcDbLine
 10
233.191254
 20
80.934669
 30
0.0
 11
232.906631
 21
80.391258
 31
0.0
210
0.0
220
0.0
230
1.0
  0
LINE
  5
10F
100
AcDbEntity
  8
0
370
    35
390
0
 62
     7
 48
0.015263
100
AcDbLine
 10
232.906631
 20
80.391258
 30
0.0
 11
232.600769
 21
79.862877
 31
0.0
210
0.0
220
0.0
230
1.0
  0
LINE
  5
110
100
AcDbEntity
  8
0
370
    35
390
0
 62
     7
 48
0.015218
100
AcDbLine
 10
232.600769
 20
79.862877
 30
0.0
 11
232.273666
 21
79.34951
 31
0.0
210
0.0
220
0.0
230
1.0
  0
LINE
  5
111
100
AcDbEntity
  8
0
370
    35
390
0
 62
     7
 48
0.015201
100
AcDbLine
 10
232.273666
 20
79.34951
 30
0.0
 11
231.925323
 21
78.851158
 31
0.0
210
0.0
220
0.0
230
1.0
  0
LINE
  5
112
100
AcDbEntity
  8
0
370
    35
390
0
 62
     7
 48
0.015673
100
AcDbLine
 10
231.925323
 20
78.851158
 30
0.0
 11
231.539963
 21
78.356651
 31
0.0
210
0.0
220
0.0
230
1.0
  0
LINE
  5
113
100
AcDbEntity
  8
0
370
    35
390
0
 62
     7
 48
0.01562
100
AcDbLine
 10
231.539963
 20
78.356651
 30
0.0
 11
231.13118
 21
77.884117
 31
0.0
210
0.0
220
0.0
230
1.0
  0
LINE
  5
114
100
AcDbEntity
  8
0
370
    35
390
0
 62
     7
 48
0.015609
100
AcDbLine
 10
231.13118
 20
77.884117
 30
0.0
 11
230.698944
 21
77.433571
 31
0.0
210
0.0
220
0.0
230
1.0
  0
LINE
  5
115
100
AcDbEntity
  8
0
370
    35
390
0
 62
     7
 48
0.015639
100
AcDbLine
 10
230.698944
 20
77.433571
 30
0.0
 11
230.243271
 21
77.004997
 31
0.0
210
0.0
220
0.0
230
1.0
  0
LINE
  5
116
100
AcDbEntity
  8
0
370
    35
390
0
 62
     7
 48
0.01571
100
AcDbLine
 10
230.243271
 20
77.004997
 30
0.0
 11
229.764145
 21
76.598412
 31
0.0
210
0.0
220
0.0
230
1.0
  0
LINE
  5
117
100
AcDbEntity
  8
0
370
    35
390
0
 62
     7
 48
0.015821
100
AcDbLine
 10
229.764145
 20
76.598412
 30
0.0
 11
229.261581
 21
76.213799
 31
0.0
210
0.0
220
0.0
230
1.0
  0
LINE
  5
118
100
AcDbEntity
  8
0
370
    35
390
0
 62
     7
 48
0.015972
100
AcDbLine
 10
229.261581
 20
76.213799
 30
0.0
 11
228.73558
 21
75.851158
 31
0.0
210
0.0
220
0.0
230
1.0
  0
LINE
  5
119
100
AcDbEntity
  8
0
370
    35
390
0
 62
     7
 48
0.016162
100
AcDbLine
 10
228.73558
 20
75.851158
 30
0.0
 11
228.186127
 21
75.51049
 31
0.0
210
0.0
220
0.0
230
1.0
  0
LINE
  5
11A
100
AcDbEntity
  8
0
370
    35
390
0
 62
     7
 48
0.016389
100
AcDbLine
 10
228.186127
 20
75.51049
 30
0.0
 11
227.613235
 21
75.191811
 31
0.0
210
0.0
220
0.0
230
1.0
  0
LINE
  5
11B
100
AcDbEntity
  8
0
370
    35
390
0
 62
     7
 48
0.016652
100
AcDbLine
 10
227.613235
 20
75.191811
 30
0.0
 11
227.016891
 21
74.895103
 31
0.0
210
0.0
220
0.0
230
1.0
  0
LINE
  5
11C
100
AcDbEntity
  8
0
370
    35
390
0
 62
     7
 48
0.017234
100
AcDbLine
 10
227.016891
 20
74.895103
 30
0.0
 11
226.383194
 21
74.62368
 31
0.0
210
0.0
220
0.0
230
1.0
  0
LINE
  5
11D
100
AcDbEntity
  8
0
370
    35
390
0
 62
     7
 48
0.017137
100
AcDbLine
 10
226.383194
 20
74.62368
 30
0.0
 11
225.742172
 21
74.380821
 31
0.0
210
0.0
220
0.0
230
1.0
  0
LINE
  5
11E
100
AcDbEntity
  8
0
370
    35
390
0
 62
     7
 48
0.017071
100
AcDbLine
 10
225.742172
 20
74.380821
 30
0.0
 11
225.093811
 21
74.166527
 31
0.0
210
0.0
220
0.0
230
1.0
  0
LINE
  5
11F
100
AcDbEntity
  8
0
370
    35
390
0
 62
     7
 48
0.017036
100
AcDbLine
 10
225.093811
 20
74.166527
 30
0.0
 11
224.438141
 21
73.980827
 31
0.0
210
0.0
220
0.0
230
1.0
  0
LINE
  5
120
100
AcDbEntity
  8
0
370
    35
390
0
 62
     7
 48
0.017034
100
AcDbLine
 10
224.438141
 20
73.980827
 30
0.0
 11
223.775131
 21
73.823677
 31
0.0
210
0.0
220
0.0
230
1.0
  0
LINE
  5
121
100
AcDbEntity
  8
0
370
    35
390
0
 62
     7
 48
0.017064
100
AcDbLine
 10
223.775131
 20
73.823677
 30
0.0
 11
223.104797
 21
73.695122
 31
0.0
210
0.0
220
0.0
230
1.0
  0
LINE
  5
122
100
AcDbEntity
  8
0
370
    35
390
0
 62
     7
 48
0.017125
100
AcDbLine
 10
223.104797
 20
73.695122
 30
0.0
 11
222.427155
 21
73.5951
 31
0.0
210
0.0
220
0.0
230
1.0
  0
LINE
  5
123
100
AcDbEntity
  8
0
370
    35
390
0
 62
     7
100
AcDbLine
 10
231.37587
 20
53.722954
 30
0.0
 11
189.03154
 21
53.722954
 31
0.0
210
0.0
220
0.0
230
1.0
  0
LINE
  5
124
100
AcDbEntity
  8
0
370
    35
390
0
 62
     7
100
AcDbLine
 10
189.03154
 20
64.638695
 30
0.0
 11
231.37587
 21
64.638695
 31
0.0
210
0.0
220
0.0
230
1.0
  0
LINE
  5
125
100
AcDbEntity
  8
0
370
    35
390
0
 62
     7
100
AcDbLine
 10
245.0
 20
51.25
 30
0.0
 11
245.0
 21
245.75
 31
0.0
210
0.0
220
0.0
230
1.0
  0
LINE
  5
126
100
AcDbEntity
  8
0
370
    35
390
0
 62
     7
 48
0.075
100
AcDbLine
 10
245.0
 20
245.75
 30
0.0
 11
248.0
 21
245.75
 31
0.0
210
0.0
220
0.0
230
1.0
  0
LINE
  5
127
100
AcDbEntity
  8
0
370
    35
390
0
 62
     7
100
AcDbLine
 10
248.0
 20
245.75
 30
0.0
 11
248.0
 21
51.25
 31
0.0
210
0.0
220
0.0
230
1.0
  0
LINE
  5
128
100
AcDbEntity
  8
0
370
    35
390
0
 62
     7
 48
0.075
100
AcDbLine
 10
248.0
 20
51.25
 30
0.0
 11
245.0
 21
51.25
 31
0.0
210
0.0
220
0.0
230
1.0
  0
LINE
  5
129
100
AcDbEntity
  8
0
370
    35
390
0
 62
     7
 48
0.075
100
AcDbLine
 10
175.0
 20
245.75
 30
0.0
 11
172.0
 21
245.75
 31
0.0
210
0.0
220
0.0
230
1.0
  0
LINE
  5
12A
100
AcDbEntity
  8
0
370
    35
390
0
 62
     7
100
AcDbLine
 10
175.0
 20
51.25
 30
0.0
 11
175.0
 21
245.75
 31
0.0
210
0.0
220
0.0
230
1.0
  0
LINE
  5
12B
100
AcDbEntity
  8
0
370
    35
390
0
 62
     7
 48
0.075
100
AcDbLine
 10
172.0
 20
51.25
 30
0.0
 11
175.0
 21
51.25
 31
0.0
210
0.0
220
0.0
230
1.0
  0
LINE
  5
12C
100
AcDbEntity
  8
0
370
    35
390
0
 62
     7
100
AcDbLine
 10
172.0
 20
245.75
 30
0.0
 11
172.0
 21
51.25
 31
0.0
210
0.0
220
0.0
230
1.0
  0
CIRCLE
  5
12D
100
AcDbEntity
  8
0
370
    35
390
0
 62
     7
100
AcDbCircle
 10
-35.0
 20
-26.5
 30
0.0
 40
2.25
210
0.0
220
0.0
230
1.0
  0
CIRCLE
  5
12E
100
AcDbEntity
  8
0
370
    35
390
0
 62
     7
100
AcDbCircle
 10
128.333328
 20
-26.5
 30
0.0
 40
2.25
210
0.0
220
0.0
230
1.0
  0
CIRCLE
  5
12F
100
AcDbEntity
  8
0
370
    35
390
0
 62
     7
100
AcDbCircle
 10
455.0
 20
323.5
 30
0.0
 40
2.25
210
0.0
220
0.0
230
1.0
  0
CIRCLE
  5
130
100
AcDbEntity
  8
0
370
    35
390
0
 62
     7
100
AcDbCircle
 10
291.666656
 20
323.5
 30
0.0
 40
2.25
210
0.0
220
0.0
230
1.0
  0
CIRCLE
  5
131
100
AcDbEntity
  8
0
370
    35
390
0
 62
     7
100
AcDbCircle
 10
128.333344
 20
323.5
 30
0.0
 40
2.25
210
0.0
220
0.0
230
1.0
  0
CIRCLE
  5
132
100
AcDbEntity
  8
0
370
    35
390
0
 62
     7
100
AcDbCircle
 10
-35.0
 20
323.5
 30
0.0
 40
2.25
210
0.0
220
0.0
230
1.0
  0
LINE
  5
133
100
AcDbEntity
  8
0
370
    35
390
0
 62
     7
 48
0.416667
100
AcDbLine
 10
213.720184
 20
232.697311
 30
0.0
 11
213.720184
 21
216.03064
 31
0.0
210
0.0
220
0.0
230
1.0
  0
LINE
  5
134
100
AcDbEntity
  8
0
370
    35
390
0
 62
     7
 48
0.024168
100
AcDbLine
 10
213.720184
 20
216.03064
 30
0.0
 11
213.730804
 21
215.06398
 31
0.0
210
0.0
220
0.0
230
1.0
  0
LINE
  5
135
100
AcDbEntity
  8
0
370
    35
390
0
 62
     7
 48
0.022697
100
AcDbLine
 10
213.730804
 20
215.06398
 30
0.0
 11
213.76268
 21
214.156647
 31
0.0
210
0.0
220
0.0
230
1.0
  0
LINE
  5
136
100
AcDbEntity
  8
0
370
    35
390
0
 62
     7
 48
0.021241
100
AcDbLine
 10
213.76268
 20
214.156647
 30
0.0
 11
213.815796
 21
213.30867
 31
0.0
210
0.0
220
0.0
230
1.0
  0
LINE
  5
137
100
AcDbEntity
  8
0
370
    35
390
0
 62
     7
 48
0.019804
100
AcDbLine
 10
213.815796
 20
213.30867
 30
0.0
 11
213.890152
 21
212.52002
 31
0.0
210
0.0
220
0.0
230
1.0
  0
LINE
  5
138
100
AcDbEntity
  8
0
370
    35
390
0
 62
     7
 48
0.018388
100
AcDbLine
 10
213.890152
 20
212.52002
 30
0.0
 11
213.985764
 21
211.790726
 31
0.0
210
0.0
220
0.0
230
1.0
  0
LINE
  5
139
100
AcDbEntity
  8
0
370
    35
390
0
 62
     7
 48
0.017002
100
AcDbLine
 10
213.985764
 20
211.790726
 30
0.0
 11
214.1026
 21
211.120758
 31
0.0
210
0.0
220
0.0
230
1.0
  0
LINE
  5
13A
100
AcDbEntity
  8
0
370
    35
390
0
 62
     7
 48
0.015651
100
AcDbLine
 10
214.1026
 20
211.120758
 30
0.0
 11
214.240707
 21
210.510132
 31
0.0
210
0.0
220
0.0
230
1.0
  0
LINE
  5
13B
100
AcDbEntity
  8
0
370
    35
390
0
 62
     7
 48
0.014346
100
AcDbLine
 10
214.240707
 20
210.510132
 30
0.0
 11
214.40004
 21
209.958847
 31
0.0
210
0.0
220
0.0
230
1.0
  0
LINE
  5
13C
100
AcDbEntity
  8
0
370
    35
390
0
 62
     7
 48
0.013101
100
AcDbLine
 10
214.40004
 20
209.958847
 30
0.0
 11
214.580627
 21
209.466904
 31
0.0
210
0.0
220
0.0
230
1.0
  0
LINE
  5
13D
100
AcDbEntity
  8
0
370
    35
390
0
 62
     7
 48
0.011934
100
AcDbLine
 10
214.580627
 20
209.466904
 30
0.0
 11
214.782455
 21
209.034302
 31
0.0
210
0.0
220
0.0
230
1.0
  0
LINE
  5
13E
100
AcDbEntity
  8
0
370
    35
390
0
 62
     7
 48
0.007288
100
AcDbLine
 10
214.782455
 20
209.034302
 30
0.0
 11
214.929901
 21
208.782837
 31
0.0
210
0.0
220
0.0
230
1.0
  0
LINE
  5
13F
100
AcDbEntity
  8
0
370
    35
390
0
 62
     7
 48
0.007298
100
AcDbLine
 10
214.929901
 20
208.782837
 30
0.0
 11
215.093811
 21
208.54126
 31
0.0
210
0.0
220
0.0
230
1.0
  0
LINE
  5
140
100
AcDbEntity
  8
0
370
    35
390
0
 62
     7
 48
0.007341
100
AcDbLine
 10
215.093811
 20
208.54126
 30
0.0
 11
215.274216
 21
208.309586
 31
0.0
210
0.0
220
0.0
230
1.0
  0
LINE
  5
141
100
AcDbEntity
  8
0
370
    35
390
0
 62
     7
 48
0.007414
100
AcDbLine
 10
215.274216
 20
208.309586
 30
0.0
 11
215.4711
 21
208.087784
 31
0.0
210
0.0
220
0.0
230
1.0
  0
LINE
  5
142
100
AcDbEntity
  8
0
370
    35
390
0
 62
     7
 48
0.007518
100
AcDbLine
 10
215.4711
 20
208.087784
 30
0.0
 11
215.684479
 21
207.875885
 31
0.0
210
0.0
220
0.0
230
1.0
  0
LINE
  5
143
100
AcDbEntity
  8
0
370
    35
390
0
 62
     7
 48
0.00765
100
AcDbLine
 10
215.684479
 20
207.875885
 30
0.0
 11
215.914322
 21
207.673874
 31
0.0
210
0.0
220
0.0
230
1.0
  0
LINE
  5
144
100
AcDbEntity
  8
0
370
    35
390
0
 62
     7
 48
0.00781
100
AcDbLine
 10
215.914322
 20
207.673874
 30
0.0
 11
216.16066
 21
207.48175
 31
0.0
210
0.0
220
0.0
230
1.0
  0
LINE
  5
145
100
AcDbEntity
  8
0
370
    35
390
0
 62
     7
 48
0.007996
100
AcDbLine
 10
216.16066
 20
207.48175
 30
0.0
 11
216.423492
 21
207.299515
 31
0.0
210
0.0
220
0.0
230
1.0
  0
LINE
  5
146
100
AcDbEntity
  8
0
370
    35
390
0
 62
     7
 48
0.008205
100
AcDbLine
 10
216.423492
 20
207.299515
 30
0.0
 11
216.702789
 21
207.127167
 31
0.0
210
0.0
220
0.0
230
1.0
  0
LINE
  5
147
100
AcDbEntity
  8
0
370
    35
390
0
 62
     7
 48
0.008437
100
AcDbLine
 10
216.702789
 20
207.127167
 30
0.0
 11
216.998581
 21
206.964706
 31
0.0
210
0.0
220
0.0
230
1.0
  0
LINE
  5
148
100
AcDbEntity
  8
0
370
    35
390
0
 62
     7
 48
0.008541
100
AcDbLine
 10
216.998581
 20
206.964706
 30
0.0
 11
217.305725
 21
206.815079
 31
0.0
210
0.0
220
0.0
230
1.0
  0
LINE
  5
149
100
AcDbEntity
  8
0
370
    35
390
0
 62
     7
 48
0.008519
100
AcDbLine
 10
217.305725
 20
206.815079
 30
0.0
 11
217.619095
 21
206.681198
 31
0.0
210
0.0
220
0.0
230
1.0
  0
LINE
  5
14A
100
AcDbEntity
  8
0
370
    35
390
0
 62
     7
 48
0.008518
100
AcDbLine
 10
217.619095
 20
206.681198
 30
0.0
 11
217.93869
 21
206.563065
 31
0.0
210
0.0
220
0.0
230
1.0
  0
LINE
  5
14B
100
AcDbEntity
  8
0
370
    35
390
0
 62
     7
 48
0.008538
100
AcDbLine
 10
217.93869
 20
206.563065
 30
0.0
 11
218.264511
 21
206.460678
 31
0.0
210
0.0
220
0.0
230
1.0
  0
LINE
  5
14C
100
AcDbEntity
  8
0
370
    35
390
0
 62
     7
 48
0.008579
100
AcDbLine
 10
218.264511
 20
206.460678
 30
0.0
 11
218.596558
 21
206.374054
 31
0.0
210
0.0
220
0.0
230
1.0
  0
LINE
  5
14D
100
AcDbEntity
  8
0
370
    35
390
0
 62
     7
 48
0.416667
100
AcDbLine
 10
226.943649
 20
216.03064
 30
0.0
 11
226.943649
 21
232.697311
 31
0.0
210
0.0
220
0.0
230
1.0
  0
LINE
  5
14E
100
AcDbEntity
  8
0
370
    35
390
0
 62
     7
 48
0.024333
100
AcDbLine
 10
226.933014
 20
215.057388
 30
0.0
 11
226.943649
 21
216.03064
 31
0.0
210
0.0
220
0.0
230
1.0
  0
LINE
  5
14F
100
AcDbEntity
  8
0
370
    35
390
0
 62
     7
 48
0.022825
100
AcDbLine
 10
226.901138
 20
214.144928
 30
0.0
 11
226.933014
 21
215.057388
 31
0.0
210
0.0
220
0.0
230
1.0
  0
LINE
  5
150
100
AcDbEntity
  8
0
370
    35
390
0
 62
     7
 48
0.008499
100
AcDbLine
 10
222.076416
 20
206.374054
 30
0.0
 11
222.405167
 21
206.460678
 31
0.0
210
0.0
220
0.0
230
1.0
  0
LINE
  5
151
100
AcDbEntity
  8
0
370
    35
390
0
 62
     7
 48
0.008477
100
AcDbLine
 10
222.405167
 20
206.460678
 30
0.0
 11
222.728424
 21
206.563065
 31
0.0
210
0.0
220
0.0
230
1.0
  0
LINE
  5
152
100
AcDbEntity
  8
0
370
    35
390
0
 62
     7
 48
0.008475
100
AcDbLine
 10
222.728424
 20
206.563065
 30
0.0
 11
223.046188
 21
206.681198
 31
0.0
210
0.0
220
0.0
230
1.0
  0
LINE
  5
153
100
AcDbEntity
  8
0
370
    35
390
0
 62
     7
 48
0.008494
100
AcDbLine
 10
223.046188
 20
206.681198
 30
0.0
 11
223.358459
 21
206.815079
 31
0.0
210
0.0
220
0.0
230
1.0
  0
LINE
  5
154
100
AcDbEntity
  8
0
370
    35
390
0
 62
     7
 48
0.008533
100
AcDbLine
 10
223.358459
 20
206.815079
 30
0.0
 11
223.665237
 21
206.964706
 31
0.0
210
0.0
220
0.0
230
1.0
  0
LINE
  5
155
100
AcDbEntity
  8
0
370
    35
390
0
 62
     7
 48
0.008437
100
AcDbLine
 10
223.665237
 20
206.964706
 30
0.0
 11
223.961029
 21
207.127167
 31
0.0
210
0.0
220
0.0
230
1.0
  0
LINE
  5
156
100
AcDbEntity
  8
0
370
    35
390
0
 62
     7
 48
0.008205
100
AcDbLine
 10
223.961029
 20
207.127167
 30
0.0
 11
224.240326
 21
207.299515
 31
0.0
210
0.0
220
0.0
230
1.0
  0
LINE
  5
157
100
AcDbEntity
  8
0
370
    35
390
0
 62
     7
 48
0.007996
100
AcDbLine
 10
224.240326
 20
207.299515
 30
0.0
 11
224.503159
 21
207.48175
 31
0.0
210
0.0
220
0.0
230
1.0
  0
LINE
  5
158
100
AcDbEntity
  8
0
370
    35
390
0
 62
     7
 48
0.00781
100
AcDbLine
 10
224.503159
 20
207.48175
 30
0.0
 11
224.749496
 21
207.673874
 31
0.0
210
0.0
220
0.0
230
1.0
  0
LINE
  5
159
100
AcDbEntity
  8
0
370
    35
390
0
 62
     7
 48
0.00765
100
AcDbLine
 10
224.749496
 20
207.673874
 30
0.0
 11
224.97934
 21
207.875885
 31
0.0
210
0.0
220
0.0
230
1.0
  0
LINE
  5
15A
100
AcDbEntity
  8
0
370
    35
390
0
 62
     7
 48
0.007518
100
AcDbLine
 10
224.97934
 20
207.875885
 30
0.0
 11
225.192719
 21
208.087784
 31
0.0
210
0.0
220
0.0
230
1.0
  0
LINE
  5
15B
100
AcDbEntity
  8
0
370
    35
390
0
 62
     7
 48
0.007414
100
AcDbLine
 10
225.192719
 20
208.087784
 30
0.0
 11
225.389603
 21
208.309586
 31
0.0
210
0.0
220
0.0
230
1.0
  0
LINE
  5
15C
100
AcDbEntity
  8
0
370
    35
390
0
 62
     7
 48
0.007341
100
AcDbLine
 10
225.389603
 20
208.309586
 30
0.0
 11
225.570007
 21
208.541275
 31
0.0
210
0.0
220
0.0
230
1.0
  0
LINE
  5
15D
100
AcDbEntity
  8
0
370
    35
390
0
 62
     7
 48
0.007298
100
AcDbLine
 10
225.570007
 20
208.541275
 30
0.0
 11
225.733917
 21
208.782837
 31
0.0
210
0.0
220
0.0
230
1.0
  0
LINE
  5
15E
100
AcDbEntity
  8
0
370
    35
390
0
 62
     7
 48
0.007288
100
AcDbLine
 10
225.733917
 20
208.782837
 30
0.0
 11
225.881363
 21
209.034302
 31
0.0
210
0.0
220
0.0
230
1.0
  0
LINE
  5
15F
100
AcDbEntity
  8
0
370
    35
390
0
 62
     7
 48
0.011785
100
AcDbLine
 10
225.881363
 20
209.034302
 30
0.0
 11
226.083206
 21
209.460312
 31
0.0
210
0.0
220
0.0
230
1.0
  0
LINE
  5
160
100
AcDbEntity
  8
0
370
    35
390
0
 62
     7
 48
0.012981
100
AcDbLine
 10
226.083206
 20
209.460312
 30
0.0
 11
226.263779
 21
209.947128
 31
0.0
210
0.0
220
0.0
230
1.0
  0
LINE
  5
161
100
AcDbEntity
  8
0
370
    35
390
0
 62
     7
 48
0.014258
100
AcDbLine
 10
226.263779
 20
209.947128
 30
0.0
 11
226.423126
 21
210.494751
 31
0.0
210
0.0
220
0.0
230
1.0
  0
LINE
  5
162
100
AcDbEntity
  8
0
370
    35
390
0
 62
     7
 48
0.015597
100
AcDbLine
 10
226.423126
 20
210.494751
 30
0.0
 11
226.561218
 21
211.103165
 31
0.0
210
0.0
220
0.0
230
1.0
  0
LINE
  5
163
100
AcDbEntity
  8
0
370
    35
390
0
 62
     7
 48
0.016984
100
AcDbLine
 10
226.561218
 20
211.103165
 30
0.0
 11
226.67807
 21
211.7724
 31
0.0
210
0.0
220
0.0
230
1.0
  0
LINE
  5
164
100
AcDbEntity
  8
0
370
    35
390
0
 62
     7
 48
0.018407
100
AcDbLine
 10
226.67807
 20
211.7724
 30
0.0
 11
226.773682
 21
212.502441
 31
0.0
210
0.0
220
0.0
230
1.0
  0
LINE
  5
165
100
AcDbEntity
  8
0
370
    35
390
0
 62
     7
 48
0.019858
100
AcDbLine
 10
226.773682
 20
212.502441
 30
0.0
 11
226.848038
 21
213.293274
 31
0.0
210
0.0
220
0.0
230
1.0
  0
LINE
  5
166
100
AcDbEntity
  8
0
370
    35
390
0
 62
     7
 48
0.021333
100
AcDbLine
 10
226.848038
 20
213.293274
 30
0.0
 11
226.901138
 21
214.144928
 31
0.0
210
0.0
220
0.0
230
1.0
  0
LINE
  5
167
100
AcDbEntity
  8
0
370
    35
390
0
 62
     7
 48
0.033512
100
AcDbLine
 10
227.189789
 20
156.936874
 30
0.0
 11
227.409576
 21
158.259201
 31
0.0
210
0.0
220
0.0
230
1.0
  0
LINE
  5
168
100
AcDbEntity
  8
0
370
    35
390
0
 62
     7
 48
0.032732
100
AcDbLine
 10
226.887955
 20
155.662872
 30
0.0
 11
227.189789
 21
156.936874
 31
0.0
210
0.0
220
0.0
230
1.0
  0
LINE
  5
169
100
AcDbEntity
  8
0
370
    35
390
0
 62
     7
 48
0.032109
100
AcDbLine
 10
226.504074
 20
154.437241
 30
0.0
 11
226.887955
 21
155.662872
 31
0.0
210
0.0
220
0.0
230
1.0
  0
LINE
  5
16A
100
AcDbEntity
  8
0
370
    35
390
0
 62
     7
 48
0.033392
100
AcDbLine
 10
192.974411
 20
158.188873
 30
0.0
 11
193.186859
 21
156.870193
 31
0.0
210
0.0
220
0.0
230
1.0
  0
LINE
  5
16B
100
AcDbEntity
  8
0
370
    35
390
0
 62
     7
 48
0.032581
100
AcDbLine
 10
193.186859
 20
156.870193
 30
0.0
 11
193.484299
 21
155.601334
 31
0.0
210
0.0
220
0.0
230
1.0
  0
LINE
  5
16C
100
AcDbEntity
  8
0
370
    35
390
0
 62
     7
 48
0.03194
100
AcDbLine
 10
193.484299
 20
155.601334
 30
0.0
 11
193.866714
 21
154.382294
 31
0.0
210
0.0
220
0.0
230
1.0
  0
LINE
  5
16D
100
AcDbEntity
  8
0
370
    35
390
0
 62
     7
 48
0.03148
100
AcDbLine
 10
193.866714
 20
154.382294
 30
0.0
 11
194.334106
 21
153.213058
 31
0.0
210
0.0
220
0.0
230
1.0
  0
LINE
  5
16E
100
AcDbEntity
  8
0
370
    35
390
0
 62
     7
 48
0.031207
100
AcDbLine
 10
194.334106
 20
153.213058
 30
0.0
 11
194.88649
 21
152.093643
 31
0.0
210
0.0
220
0.0
230
1.0
  0
LINE
  5
16F
100
AcDbEntity
  8
0
370
    35
390
0
 62
     7
 48
0.031127
100
AcDbLine
 10
194.88649
 20
152.093643
 30
0.0
 11
195.523849
 21
151.024048
 31
0.0
210
0.0
220
0.0
230
1.0
  0
LINE
  5
170
100
AcDbEntity
  8
0
370
    35
390
0
 62
     7
 48
0.031242
100
AcDbLine
 10
195.523849
 20
151.024048
 30
0.0
 11
196.246201
 21
150.004272
 31
0.0
210
0.0
220
0.0
230
1.0
  0
LINE
  5
171
100
AcDbEntity
  8
0
370
    35
390
0
 62
     7
 48
0.03155
100
AcDbLine
 10
196.246201
 20
150.004272
 30
0.0
 11
197.053528
 21
149.034302
 31
0.0
210
0.0
220
0.0
230
1.0
  0
LINE
  5
172
100
AcDbEntity
  8
0
370
    35
390
0
 62
     7
 48
0.018885
100
AcDbLine
 10
197.053528
 20
149.034302
 30
0.0
 11
197.570374
 21
148.483383
 31
0.0
210
0.0
220
0.0
230
1.0
  0
LINE
  5
173
100
AcDbEntity
  8
0
370
    35
390
0
 62
     7
 48
0.018813
100
AcDbLine
 10
197.570374
 20
148.483383
 30
0.0
 11
198.10994
 21
147.958847
 31
0.0
210
0.0
220
0.0
230
1.0
  0
LINE
  5
174
100
AcDbEntity
  8
0
370
    35
390
0
 62
     7
 48
0.01878
100
AcDbLine
 10
198.10994
 20
147.958847
 30
0.0
 11
198.672211
 21
147.460678
 31
0.0
210
0.0
220
0.0
230
1.0
  0
LINE
  5
175
100
AcDbEntity
  8
0
370
    35
390
0
 62
     7
 48
0.018788
100
AcDbLine
 10
198.672211
 20
147.460678
 30
0.0
 11
199.257187
 21
146.988876
 31
0.0
210
0.0
220
0.0
230
1.0
  0
LINE
  5
176
100
AcDbEntity
  8
0
370
    35
390
0
 62
     7
 48
0.018836
100
AcDbLine
 10
199.257187
 20
146.988876
 30
0.0
 11
199.864883
 21
146.543457
 31
0.0
210
0.0
220
0.0
230
1.0
  0
LINE
  5
177
100
AcDbEntity
  8
0
370
    35
390
0
 62
     7
 48
0.018924
100
AcDbLine
 10
199.864883
 20
146.543457
 30
0.0
 11
200.495285
 21
146.12442
 31
0.0
210
0.0
220
0.0
230
1.0
  0
LINE
  5
178
100
AcDbEntity
  8
0
370
    35
390
0
 62
     7
 48
0.019052
100
AcDbLine
 10
200.495285
 20
146.12442
 30
0.0
 11
201.148392
 21
145.731735
 31
0.0
210
0.0
220
0.0
230
1.0
  0
LINE
  5
179
100
AcDbEntity
  8
0
370
    35
390
0
 62
     7
 48
0.019218
100
AcDbLine
 10
201.148392
 20
145.731735
 30
0.0
 11
201.824219
 21
145.365433
 31
0.0
210
0.0
220
0.0
230
1.0
  0
LINE
  5
17A
100
AcDbEntity
  8
0
370
    35
390
0
 62
     7
 48
0.019421
100
AcDbLine
 10
201.824219
 20
145.365433
 30
0.0
 11
202.522751
 21
145.025513
 31
0.0
210
0.0
220
0.0
230
1.0
  0
LINE
  5
17B
100
AcDbEntity
  8
0
370
    35
390
0
 62
     7
 48
0.019662
100
AcDbLine
 10
202.522751
 20
145.025513
 30
0.0
 11
203.244003
 21
144.71196
 31
0.0
210
0.0
220
0.0
230
1.0
  0
LINE
  5
17C
100
AcDbEntity
  8
0
370
    35
390
0
 62
     7
 48
0.017514
100
AcDbLine
 10
203.244003
 20
144.71196
 30
0.0
 11
203.898209
 21
144.461411
 31
0.0
210
0.0
220
0.0
230
1.0
  0
LINE
  5
17D
100
AcDbEntity
  8
0
370
    35
390
0
 62
     7
 48
0.017393
100
AcDbLine
 10
203.898209
 20
144.461411
 30
0.0
 11
204.556824
 21
144.237228
 31
0.0
210
0.0
220
0.0
230
1.0
  0
LINE
  5
17E
100
AcDbEntity
  8
0
370
    35
390
0
 62
     7
 48
0.017297
100
AcDbLine
 10
204.556824
 20
144.237228
 30
0.0
 11
205.219818
 21
144.039444
 31
0.0
210
0.0
220
0.0
230
1.0
  0
LINE
  5
17F
100
AcDbEntity
  8
0
370
    35
390
0
 62
     7
 48
0.017227
100
AcDbLine
 10
205.219818
 20
144.039444
 30
0.0
 11
205.887222
 21
143.867996
 31
0.0
210
0.0
220
0.0
230
1.0
  0
LINE
  5
180
100
AcDbEntity
  8
0
370
    35
390
0
 62
     7
 48
0.017182
100
AcDbLine
 10
205.887222
 20
143.867996
 30
0.0
 11
206.559021
 21
143.722946
 31
0.0
210
0.0
220
0.0
230
1.0
  0
LINE
  5
181
100
AcDbEntity
  8
0
370
    35
390
0
 62
     7
 48
0.017163
100
AcDbLine
 10
206.559021
 20
143.722946
 30
0.0
 11
207.235214
 21
143.604263
 31
0.0
210
0.0
220
0.0
230
1.0
  0
LINE
  5
182
100
AcDbEntity
  8
0
370
    35
390
0
 62
     7
 48
0.01717
100
AcDbLine
 10
207.235214
 20
143.604263
 30
0.0
 11
207.915787
 21
143.511963
 31
0.0
210
0.0
220
0.0
230
1.0
  0
LINE
  5
183
100
AcDbEntity
  8
0
370
    35
390
0
 62
     7
 48
0.017204
100
AcDbLine
 10
207.915787
 20
143.511963
 30
0.0
 11
208.600784
 21
143.44603
 31
0.0
210
0.0
220
0.0
230
1.0
  0
LINE
  5
184
100
AcDbEntity
  8
0
370
    35
390
0
 62
     7
 48
0.017262
100
AcDbLine
 10
208.600784
 20
143.44603
 30
0.0
 11
209.290146
 21
143.406464
 31
0.0
210
0.0
220
0.0
230
1.0
  0
LINE
  5
185
100
AcDbEntity
  8
0
370
    35
390
0
 62
     7
 48
0.017348
100
AcDbLine
 10
209.290146
 20
143.406464
 30
0.0
 11
209.983932
 21
143.39328
 31
0.0
210
0.0
220
0.0
230
1.0
  0
LINE
  5
186
100
AcDbEntity
  8
0
370
    35
390
0
 62
     7
 48
0.041608
100
AcDbLine
 10
209.983932
 20
143.39328
 30
0.0
 11
211.647293
 21
143.449692
 31
0.0
210
0.0
220
0.0
230
1.0
  0
LINE
  5
187
100
AcDbEntity
  8
0
370
    35
390
0
 62
     7
 48
0.039996
100
AcDbLine
 10
211.647293
 20
143.449692
 30
0.0
 11
213.238144
 21
143.618927
 31
0.0
210
0.0
220
0.0
230
1.0
  0
LINE
  5
188
100
AcDbEntity
  8
0
370
    35
390
0
 62
     7
 48
0.038607
100
AcDbLine
 10
213.238144
 20
143.618927
 30
0.0
 11
214.756454
 21
143.90097
 31
0.0
210
0.0
220
0.0
230
1.0
  0
LINE
  5
189
100
AcDbEntity
  8
0
370
    35
390
0
 62
     7
 48
0.037468
100
AcDbLine
 10
214.756454
 20
143.90097
 30
0.0
 11
216.20224
 21
144.295837
 31
0.0
210
0.0
220
0.0
230
1.0
  0
LINE
  5
18A
100
AcDbEntity
  8
0
370
    35
390
0
 62
     7
 48
0.036603
100
AcDbLine
 10
216.20224
 20
144.295837
 30
0.0
 11
217.5755
 21
144.803528
 31
0.0
210
0.0
220
0.0
230
1.0
  0
LINE
  5
18B
100
AcDbEntity
  8
0
370
    35
390
0
 62
     7
 48
0.036029
100
AcDbLine
 10
217.5755
 20
144.803528
 30
0.0
 11
218.876236
 21
145.424042
 31
0.0
210
0.0
220
0.0
230
1.0
  0
LINE
  5
18C
100
AcDbEntity
  8
0
370
    35
390
0
 62
     7
 48
0.035762
100
AcDbLine
 10
218.876236
 20
145.424042
 30
0.0
 11
220.104431
 21
146.157379
 31
0.0
210
0.0
220
0.0
230
1.0
  0
LINE
  5
18D
100
AcDbEntity
  8
0
370
    35
390
0
 62
     7
 48
0.035808
100
AcDbLine
 10
220.104431
 20
146.157379
 30
0.0
 11
221.260117
 21
147.00354
 31
0.0
210
0.0
220
0.0
230
1.0
  0
LINE
  5
18E
100
AcDbEntity
  8
0
370
    35
390
0
 62
     7
 48
0.036167
100
AcDbLine
 10
221.260117
 20
147.00354
 30
0.0
 11
222.343262
 21
147.962509
 31
0.0
210
0.0
220
0.0
230
1.0
  0
LINE
  5
18F
100
AcDbEntity
  8
0
370
    35
390
0
 62
     7
 48
0.036828
100
AcDbLine
 10
222.343262
 20
147.962509
 30
0.0
 11
223.353882
 21
149.034302
 31
0.0
210
0.0
220
0.0
230
1.0
  0
LINE
  5
190
100
AcDbEntity
  8
0
370
    35
390
0
 62
     7
 48
0.03161
100
AcDbLine
 10
223.353882
 20
149.034302
 30
0.0
 11
224.148026
 21
150.018188
 31
0.0
210
0.0
220
0.0
230
1.0
  0
LINE
  5
191
100
AcDbEntity
  8
0
370
    35
390
0
 62
     7
 48
0.031351
100
AcDbLine
 10
224.148026
 20
150.018188
 30
0.0
 11
224.860123
 21
151.050415
 31
0.0
210
0.0
220
0.0
230
1.0
  0
LINE
  5
192
100
AcDbEntity
  8
0
370
    35
390
0
 62
     7
 48
0.031271
100
AcDbLine
 10
224.860123
 20
151.050415
 30
0.0
 11
225.490143
 21
152.131012
 31
0.0
210
0.0
220
0.0
230
1.0
  0
LINE
  5
193
100
AcDbEntity
  8
0
370
    35
390
0
 62
     7
 48
0.031372
100
AcDbLine
 10
225.490143
 20
152.131012
 30
0.0
 11
226.038132
 21
153.259933
 31
0.0
210
0.0
220
0.0
230
1.0
  0
LINE
  5
194
100
AcDbEntity
  8
0
370
    35
390
0
 62
     7
 48
0.031654
100
AcDbLine
 10
226.038132
 20
153.259933
 30
0.0
 11
226.504074
 21
154.437241
 31
0.0
210
0.0
220
0.0
230
1.0
  0
LINE
  5
195
100
AcDbEntity
  8
0
370
    35
390
0
 62
     7
 48
0.033437
100
AcDbLine
 10
193.186859
 20
165.084488
 30
0.0
 11
192.974411
 21
163.763977
 31
0.0
210
0.0
220
0.0
230
1.0
  0
LINE
  5
196
100
AcDbEntity
  8
0
370
    35
390
0
 62
     7
 48
0.032644
100
AcDbLine
 10
193.484299
 20
166.355927
 30
0.0
 11
193.186859
 21
165.084488
 31
0.0
210
0.0
220
0.0
230
1.0
  0
LINE
  5
197
100
AcDbEntity
  8
0
370
    35
390
0
 62
     7
 48
0.032019
100
AcDbLine
 10
193.866714
 20
167.578262
 30
0.0
 11
193.484299
 21
166.355927
 31
0.0
210
0.0
220
0.0
230
1.0
  0
LINE
  5
198
100
AcDbEntity
  8
0
370
    35
390
0
 62
     7
 48
0.033166
100
AcDbLine
 10
227.433014
 20
163.810852
 30
0.0
 11
227.220566
 21
165.120377
 31
0.0
210
0.0
220
0.0
230
1.0
  0
LINE
  5
199
100
AcDbEntity
  8
0
370
    35
390
0
 62
     7
 48
0.032412
100
AcDbLine
 10
227.220566
 20
165.120377
 30
0.0
 11
226.923126
 21
166.382294
 31
0.0
210
0.0
220
0.0
230
1.0
  0
LINE
  5
19A
100
AcDbEntity
  8
0
370
    35
390
0
 62
     7
 48
0.031827
100
AcDbLine
 10
226.923126
 20
166.382294
 30
0.0
 11
226.540695
 21
167.596573
 31
0.0
210
0.0
220
0.0
230
1.0
  0
LINE
  5
19B
100
AcDbEntity
  8
0
370
    35
390
0
 62
     7
 48
0.03142
100
AcDbLine
 10
226.540695
 20
167.596573
 30
0.0
 11
226.073303
 21
168.763245
 31
0.0
210
0.0
220
0.0
230
1.0
  0
LINE
  5
19C
100
AcDbEntity
  8
0
370
    35
390
0
 62
     7
 48
0.031199
100
AcDbLine
 10
226.073303
 20
168.763245
 30
0.0
 11
225.52092
 21
169.882294
 31
0.0
210
0.0
220
0.0
230
1.0
  0
LINE
  5
19D
100
AcDbEntity
  8
0
370
    35
390
0
 62
     7
 48
0.031167
100
AcDbLine
 10
225.52092
 20
169.882294
 30
0.0
 11
224.88356
 21
170.95372
 31
0.0
210
0.0
220
0.0
230
1.0
  0
LINE
  5
19E
100
AcDbEntity
  8
0
370
    35
390
0
 62
     7
 48
0.031325
100
AcDbLine
 10
224.88356
 20
170.95372
 30
0.0
 11
224.161209
 21
171.977539
 31
0.0
210
0.0
220
0.0
230
1.0
  0
LINE
  5
19F
100
AcDbEntity
  8
0
370
    35
390
0
 62
     7
 48
0.031669
100
AcDbLine
 10
224.161209
 20
171.977539
 30
0.0
 11
223.353882
 21
172.95372
 31
0.0
210
0.0
220
0.0
230
1.0
  0
LINE
  5
1A0
100
AcDbEntity
  8
0
370
    35
390
0
 62
     7
 48
0.037245
100
AcDbLine
 10
223.353882
 20
172.95372
 30
0.0
 11
222.319092
 21
174.025513
 31
0.0
210
0.0
220
0.0
230
1.0
  0
LINE
  5
1A1
100
AcDbEntity
  8
0
370
    35
390
0
 62
     7
 48
0.036428
100
AcDbLine
 10
222.319092
 20
174.025513
 30
0.0
 11
221.222015
 21
174.984482
 31
0.0
210
0.0
220
0.0
230
1.0
  0
LINE
  5
1A2
100
AcDbEntity
  8
0
370
    35
390
0
 62
     7
 48
0.035882
100
AcDbLine
 10
221.222015
 20
174.984482
 30
0.0
 11
220.062683
 21
175.830643
 31
0.0
210
0.0
220
0.0
230
1.0
  0
LINE
  5
1A3
100
AcDbEntity
  8
0
370
    35
390
0
 62
     7
 48
0.035621
100
AcDbLine
 10
220.062683
 20
175.830643
 30
0.0
 11
218.841064
 21
176.56398
 31
0.0
210
0.0
220
0.0
230
1.0
  0
LINE
  5
1A4
100
AcDbEntity
  8
0
370
    35
390
0
 62
     7
 48
0.035649
100
AcDbLine
 10
218.841064
 20
176.56398
 30
0.0
 11
217.55719
 21
177.184494
 31
0.0
210
0.0
220
0.0
230
1.0
  0
LINE
  5
1A5
100
AcDbEntity
  8
0
370
    35
390
0
 62
     7
 48
0.035968
100
AcDbLine
 10
217.55719
 20
177.184494
 30
0.0
 11
216.211029
 21
177.692184
 31
0.0
210
0.0
220
0.0
230
1.0
  0
LINE
  5
1A6
100
AcDbEntity
  8
0
370
    35
390
0
 62
     7
 48
0.036568
100
AcDbLine
 10
216.211029
 20
177.692184
 30
0.0
 11
214.802612
 21
178.087051
 31
0.0
210
0.0
220
0.0
230
1.0
  0
LINE
  5
1A7
100
AcDbEntity
  8
0
370
    35
390
0
 62
     7
 48
0.037438
100
AcDbLine
 10
214.802612
 20
178.087051
 30
0.0
 11
213.331909
 21
178.369095
 31
0.0
210
0.0
220
0.0
230
1.0
  0
LINE
  5
1A8
100
AcDbEntity
  8
0
370
    35
390
0
 62
     7
 48
0.038557
100
AcDbLine
 10
213.331909
 20
178.369095
 30
0.0
 11
211.79895
 21
178.53833
 31
0.0
210
0.0
220
0.0
230
1.0
  0
LINE
  5
1A9
100
AcDbEntity
  8
0
370
    35
390
0
 62
     7
 48
0.039906
100
AcDbLine
 10
211.79895
 20
178.53833
 30
0.0
 11
210.203705
 21
178.594742
 31
0.0
210
0.0
220
0.0
230
1.0
  0
LINE
  5
1AA
100
AcDbEntity
  8
0
370
    35
390
0
 62
     7
 48
0.039906
100
AcDbLine
 10
210.203705
 20
178.594742
 30
0.0
 11
208.608475
 21
178.53833
 31
0.0
210
0.0
220
0.0
230
1.0
  0
LINE
  5
1AB
100
AcDbEntity
  8
0
370
    35
390
0
 62
     7
 48
0.038557
100
AcDbLine
 10
208.608475
 20
178.53833
 30
0.0
 11
207.0755
 21
178.36911
 31
0.0
210
0.0
220
0.0
230
1.0
  0
LINE
  5
1AC
100
AcDbEntity
  8
0
370
    35
390
0
 62
     7
 48
0.037438
100
AcDbLine
 10
207.0755
 20
178.36911
 30
0.0
 11
205.604797
 21
178.087051
 31
0.0
210
0.0
220
0.0
230
1.0
  0
LINE
  5
1AD
100
AcDbEntity
  8
0
370
    35
390
0
 62
     7
 48
0.036568
100
AcDbLine
 10
205.604797
 20
178.087051
 30
0.0
 11
204.196381
 21
177.692184
 31
0.0
210
0.0
220
0.0
230
1.0
  0
LINE
  5
1AE
100
AcDbEntity
  8
0
370
    35
390
0
 62
     7
 48
0.035968
100
AcDbLine
 10
204.196381
 20
177.692184
 30
0.0
 11
202.85022
 21
177.184494
 31
0.0
210
0.0
220
0.0
230
1.0
  0
LINE
  5
1AF
100
AcDbEntity
  8
0
370
    35
390
0
 62
     7
 48
0.035649
100
AcDbLine
 10
202.85022
 20
177.184494
 30
0.0
 11
201.566345
 21
176.56398
 31
0.0
210
0.0
220
0.0
230
1.0
  0
LINE
  5
1B0
100
AcDbEntity
  8
0
370
    35
390
0
 62
     7
 48
0.035621
100
AcDbLine
 10
201.566345
 20
176.56398
 30
0.0
 11
200.344727
 21
175.830658
 31
0.0
210
0.0
220
0.0
230
1.0
  0
LINE
  5
1B1
100
AcDbEntity
  8
0
370
    35
390
0
 62
     7
 48
0.035882
100
AcDbLine
 10
200.344727
 20
175.830658
 30
0.0
 11
199.185394
 21
174.984497
 31
0.0
210
0.0
220
0.0
230
1.0
  0
LINE
  5
1B2
100
AcDbEntity
  8
0
370
    35
390
0
 62
     7
 48
0.036428
100
AcDbLine
 10
199.185394
 20
174.984497
 30
0.0
 11
198.088318
 21
174.025528
 31
0.0
210
0.0
220
0.0
230
1.0
  0
LINE
  5
1B3
100
AcDbEntity
  8
0
370
    35
390
0
 62
     7
 48
0.037245
100
AcDbLine
 10
198.088318
 20
174.025528
 30
0.0
 11
197.053528
 21
172.95372
 31
0.0
210
0.0
220
0.0
230
1.0
  0
LINE
  5
1B4
100
AcDbEntity
  8
0
370
    35
390
0
 62
     7
 48
0.031684
100
AcDbLine
 10
197.053528
 20
172.95372
 30
0.0
 11
196.246201
 21
171.976791
 31
0.0
210
0.0
220
0.0
230
1.0
  0
LINE
  5
1B5
100
AcDbEntity
  8
0
370
    35
390
0
 62
     7
 48
0.031369
100
AcDbLine
 10
196.246201
 20
171.976791
 30
0.0
 11
195.523849
 21
170.95079
 31
0.0
210
0.0
220
0.0
230
1.0
  0
LINE
  5
1B6
100
AcDbEntity
  8
0
370
    35
390
0
 62
     7
 48
0.031245
100
AcDbLine
 10
195.523849
 20
170.95079
 30
0.0
 11
194.88649
 21
169.875702
 31
0.0
210
0.0
220
0.0
230
1.0
  0
LINE
  5
1B7
100
AcDbEntity
  8
0
370
    35
390
0
 62
     7
 48
0.031314
100
AcDbLine
 10
194.88649
 20
169.875702
 30
0.0
 11
194.334106
 21
168.751526
 31
0.0
210
0.0
220
0.0
230
1.0
  0
LINE
  5
1B8
100
AcDbEntity
  8
0
370
    35
390
0
 62
     7
 48
0.031573
100
AcDbLine
 10
194.334106
 20
168.751526
 30
0.0
 11
193.866714
 21
167.578262
 31
0.0
210
0.0
220
0.0
230
1.0
  0
LINE
  5
1B9
100
AcDbEntity
  8
0
370
    35
390
0
 62
     7
 48
0.416667
100
AcDbLine
 10
213.720184
 20
111.122215
 30
0.0
 11
213.720184
 21
94.455544
 31
0.0
210
0.0
220
0.0
230
1.0
  0
LINE
  5
1BA
100
AcDbEntity
  8
0
370
    35
390
0
 62
     7
 48
0.024168
100
AcDbLine
 10
213.720184
 20
94.455544
 30
0.0
 11
213.730804
 21
93.488884
 31
0.0
210
0.0
220
0.0
230
1.0
  0
LINE
  5
1BB
100
AcDbEntity
  8
0
370
    35
390
0
 62
     7
 48
0.022697
100
AcDbLine
 10
213.730804
 20
93.488884
 30
0.0
 11
213.76268
 21
92.581551
 31
0.0
210
0.0
220
0.0
230
1.0
  0
LINE
  5
1BC
100
AcDbEntity
  8
0
370
    35
390
0
 62
     7
 48
0.021241
100
AcDbLine
 10
213.76268
 20
92.581551
 30
0.0
 11
213.815796
 21
91.733574
 31
0.0
210
0.0
220
0.0
230
1.0
  0
LINE
  5
1BD
100
AcDbEntity
  8
0
370
    35
390
0
 62
     7
 48
0.019803
100
AcDbLine
 10
213.815796
 20
91.733574
 30
0.0
 11
213.890152
 21
90.944939
 31
0.0
210
0.0
220
0.0
230
1.0
  0
LINE
  5
1BE
100
AcDbEntity
  8
0
370
    35
390
0
 62
     7
 48
0.018389
100
AcDbLine
 10
213.890152
 20
90.944939
 30
0.0
 11
213.985764
 21
90.21563
 31
0.0
210
0.0
220
0.0
230
1.0
  0
LINE
  5
1BF
100
AcDbEntity
  8
0
370
    35
390
0
 62
     7
 48
0.017002
100
AcDbLine
 10
213.985764
 20
90.21563
 30
0.0
 11
214.1026
 21
89.545662
 31
0.0
210
0.0
220
0.0
230
1.0
  0
LINE
  5
1C0
100
AcDbEntity
  8
0
370
    35
390
0
 62
     7
 48
0.015651
100
AcDbLine
 10
214.1026
 20
89.545662
 30
0.0
 11
214.240707
 21
88.935036
 31
0.0
210
0.0
220
0.0
230
1.0
  0
LINE
  5
1C1
100
AcDbEntity
  8
0
370
    35
390
0
 62
     7
 48
0.014346
100
AcDbLine
 10
214.240707
 20
88.935036
 30
0.0
 11
214.40004
 21
88.383766
 31
0.0
210
0.0
220
0.0
230
1.0
  0
LINE
  5
1C2
100
AcDbEntity
  8
0
370
    35
390
0
 62
     7
 48
0.013101
100
AcDbLine
 10
214.40004
 20
88.383766
 30
0.0
 11
214.580627
 21
87.891823
 31
0.0
210
0.0
220
0.0
230
1.0
  0
LINE
  5
1C3
100
AcDbEntity
  8
0
370
    35
390
0
 62
     7
 48
0.011935
100
AcDbLine
 10
214.580627
 20
87.891823
 30
0.0
 11
214.782455
 21
87.459206
 31
0.0
210
0.0
220
0.0
230
1.0
  0
LINE
  5
1C4
100
AcDbEntity
  8
0
370
    35
390
0
 62
     7
 48
0.007288
100
AcDbLine
 10
214.782455
 20
87.459206
 30
0.0
 11
214.929901
 21
87.207741
 31
0.0
210
0.0
220
0.0
230
1.0
  0
LINE
  5
1C5
100
AcDbEntity
  8
0
370
    35
390
0
 62
     7
 48
0.007298
100
AcDbLine
 10
214.929901
 20
87.207741
 30
0.0
 11
215.093811
 21
86.966179
 31
0.0
210
0.0
220
0.0
230
1.0
  0
LINE
  5
1C6
100
AcDbEntity
  8
0
370
    35
390
0
 62
     7
 48
0.007341
100
AcDbLine
 10
215.093811
 20
86.966179
 30
0.0
 11
215.274216
 21
86.734489
 31
0.0
210
0.0
220
0.0
230
1.0
  0
LINE
  5
1C7
100
AcDbEntity
  8
0
370
    35
390
0
 62
     7
 48
0.007414
100
AcDbLine
 10
215.274216
 20
86.734489
 30
0.0
 11
215.4711
 21
86.512703
 31
0.0
210
0.0
220
0.0
230
1.0
  0
LINE
  5
1C8
100
AcDbEntity
  8
0
370
    35
390
0
 62
     7
 48
0.007518
100
AcDbLine
 10
215.4711
 20
86.512703
 30
0.0
 11
215.684479
 21
86.300789
 31
0.0
210
0.0
220
0.0
230
1.0
  0
LINE
  5
1C9
100
AcDbEntity
  8
0
370
    35
390
0
 62
     7
 48
0.00765
100
AcDbLine
 10
215.684479
 20
86.300789
 30
0.0
 11
215.914322
 21
86.098763
 31
0.0
210
0.0
220
0.0
230
1.0
  0
LINE
  5
1CA
100
AcDbEntity
  8
0
370
    35
390
0
 62
     7
 48
0.00781
100
AcDbLine
 10
215.914322
 20
86.098763
 30
0.0
 11
216.16066
 21
85.906654
 31
0.0
210
0.0
220
0.0
230
1.0
  0
LINE
  5
1CB
100
AcDbEntity
  8
0
370
    35
390
0
 62
     7
 48
0.007996
100
AcDbLine
 10
216.16066
 20
85.906654
 30
0.0
 11
216.423492
 21
85.724419
 31
0.0
210
0.0
220
0.0
230
1.0
  0
LINE
  5
1CC
100
AcDbEntity
  8
0
370
    35
390
0
 62
     7
 48
0.008205
100
AcDbLine
 10
216.423492
 20
85.724419
 30
0.0
 11
216.702789
 21
85.552071
 31
0.0
210
0.0
220
0.0
230
1.0
  0
LINE
  5
1CD
100
AcDbEntity
  8
0
370
    35
390
0
 62
     7
 48
0.008437
100
AcDbLine
 10
216.702789
 20
85.552071
 30
0.0
 11
216.998581
 21
85.38961
 31
0.0
210
0.0
220
0.0
230
1.0
  0
LINE
  5
1CE
100
AcDbEntity
  8
0
370
    35
390
0
 62
     7
 48
0.008541
100
AcDbLine
 10
216.998581
 20
85.38961
 30
0.0
 11
217.305725
 21
85.239983
 31
0.0
210
0.0
220
0.0
230
1.0
  0
LINE
  5
1CF
100
AcDbEntity
  8
0
370
    35
390
0
 62
     7
 48
0.008519
100
AcDbLine
 10
217.305725
 20
85.239983
 30
0.0
 11
217.619095
 21
85.106087
 31
0.0
210
0.0
220
0.0
230
1.0
  0
LINE
  5
1D0
100
AcDbEntity
  8
0
370
    35
390
0
 62
     7
 48
0.008518
100
AcDbLine
 10
217.619095
 20
85.106087
 30
0.0
 11
217.93869
 21
84.987968
 31
0.0
210
0.0
220
0.0
230
1.0
  0
LINE
  5
1D1
100
AcDbEntity
  8
0
370
    35
390
0
 62
     7
 48
0.008538
100
AcDbLine
 10
217.93869
 20
84.987968
 30
0.0
 11
218.264511
 21
84.885597
 31
0.0
210
0.0
220
0.0
230
1.0
  0
LINE
  5
1D2
100
AcDbEntity
  8
0
370
    35
390
0
 62
     7
 48
0.008579
100
AcDbLine
 10
218.264511
 20
84.885597
 30
0.0
 11
218.596558
 21
84.798958
 31
0.0
210
0.0
220
0.0
230
1.0
  0
LINE
  5
1D3
100
AcDbEntity
  8
0
370
    35
390
0
 62
     7
 48
0.416667
100
AcDbLine
 10
226.943634
 20
94.455544
 30
0.0
 11
226.943634
 21
111.122215
 31
0.0
210
0.0
220
0.0
230
1.0
  0
LINE
  5
1D4
100
AcDbEntity
  8
0
370
    35
390
0
 62
     7
 48
0.024333
100
AcDbLine
 10
226.933014
 20
93.482292
 30
0.0
 11
226.943634
 21
94.455544
 31
0.0
210
0.0
220
0.0
230
1.0
  0
LINE
  5
1D5
100
AcDbEntity
  8
0
370
    35
390
0
 62
     7
 48
0.022825
100
AcDbLine
 10
226.901138
 20
92.569832
 30
0.0
 11
226.933014
 21
93.482292
 31
0.0
210
0.0
220
0.0
230
1.0
  0
LINE
  5
1D6
100
AcDbEntity
  8
0
370
    35
390
0
 62
     7
 48
0.008499
100
AcDbLine
 10
222.076416
 20
84.798958
 30
0.0
 11
222.405167
 21
84.885597
 31
0.0
210
0.0
220
0.0
230
1.0
  0
LINE
  5
1D7
100
AcDbEntity
  8
0
370
    35
390
0
 62
     7
 48
0.008477
100
AcDbLine
 10
222.405167
 20
84.885597
 30
0.0
 11
222.728424
 21
84.987968
 31
0.0
210
0.0
220
0.0
230
1.0
  0
LINE
  5
1D8
100
AcDbEntity
  8
0
370
    35
390
0
 62
     7
 48
0.008475
100
AcDbLine
 10
222.728424
 20
84.987968
 30
0.0
 11
223.046188
 21
85.106087
 31
0.0
210
0.0
220
0.0
230
1.0
  0
LINE
  5
1D9
100
AcDbEntity
  8
0
370
    35
390
0
 62
     7
 48
0.008494
100
AcDbLine
 10
223.046188
 20
85.106087
 30
0.0
 11
223.358459
 21
85.239983
 31
0.0
210
0.0
220
0.0
230
1.0
  0
LINE
  5
1DA
100
AcDbEntity
  8
0
370
    35
390
0
 62
     7
 48
0.008533
100
AcDbLine
 10
223.358459
 20
85.239983
 30
0.0
 11
223.665237
 21
85.38961
 31
0.0
210
0.0
220
0.0
230
1.0
  0
LINE
  5
1DB
100
AcDbEntity
  8
0
370
    35
390
0
 62
     7
 48
0.008437
100
AcDbLine
 10
223.665237
 20
85.38961
 30
0.0
 11
223.961029
 21
85.552071
 31
0.0
210
0.0
220
0.0
230
1.0
  0
LINE
  5
1DC
100
AcDbEntity
  8
0
370
    35
390
0
 62
     7
 48
0.008205
100
AcDbLine
 10
223.961029
 20
85.552071
 30
0.0
 11
224.240326
 21
85.724419
 31
0.0
210
0.0
220
0.0
230
1.0
  0
LINE
  5
1DD
100
AcDbEntity
  8
0
370
    35
390
0
 62
     7
 48
0.007996
100
AcDbLine
 10
224.240326
 20
85.724419
 30
0.0
 11
224.503159
 21
85.906654
 31
0.0
210
0.0
220
0.0
230
1.0
  0
LINE
  5
1DE
100
AcDbEntity
  8
0
370
    35
390
0
 62
     7
 48
0.00781
100
AcDbLine
 10
224.503159
 20
85.906654
 30
0.0
 11
224.749496
 21
86.098763
 31
0.0
210
0.0
220
0.0
230
1.0
  0
LINE
  5
1DF
100
AcDbEntity
  8
0
370
    35
390
0
 62
     7
 48
0.00765
100
AcDbLine
 10
224.749496
 20
86.098763
 30
0.0
 11
224.97934
 21
86.300789
 31
0.0
210
0.0
220
0.0
230
1.0
  0
LINE
  5
1E0
100
AcDbEntity
  8
0
370
    35
390
0
 62
     7
 48
0.007518
100
AcDbLine
 10
224.97934
 20
86.300789
 30
0.0
 11
225.192719
 21
86.512703
 31
0.0
210
0.0
220
0.0
230
1.0
  0
LINE
  5
1E1
100
AcDbEntity
  8
0
370
    35
390
0
 62
     7
 48
0.007414
100
AcDbLine
 10
225.192719
 20
86.512703
 30
0.0
 11
225.389603
 21
86.734489
 31
0.0
210
0.0
220
0.0
230
1.0
  0
LINE
  5
1E2
100
AcDbEntity
  8
0
370
    35
390
0
 62
     7
 48
0.007341
100
AcDbLine
 10
225.389603
 20
86.734489
 30
0.0
 11
225.570007
 21
86.966179
 31
0.0
210
0.0
220
0.0
230
1.0
  0
LINE
  5
1E3
100
AcDbEntity
  8
0
370
    35
390
0
 62
     7
 48
0.007298
100
AcDbLine
 10
225.570007
 20
86.966179
 30
0.0
 11
225.733917
 21
87.207741
 31
0.0
210
0.0
220
0.0
230
1.0
  0
LINE
  5
1E4
100
AcDbEntity
  8
0
370
    35
390
0
 62
     7
 48
0.007288
100
AcDbLine
 10
225.733917
 20
87.207741
 30
0.0
 11
225.881363
 21
87.459206
 31
0.0
210
0.0
220
0.0
230
1.0
  0
LINE
  5
1E5
100
AcDbEntity
  8
0
370
    35
390
0
 62
     7
 48
0.011785
100
AcDbLine
 10
225.881363
 20
87.459206
 30
0.0
 11
226.083191
 21
87.885216
 31
0.0
210
0.0
220
0.0
230
1.0
  0
LINE
  5
1E6
100
AcDbEntity
  8
0
370
    35
390
0
 62
     7
 48
0.012981
100
AcDbLine
 10
226.083191
 20
87.885216
 30
0.0
 11
226.263779
 21
88.372032
 31
0.0
210
0.0
220
0.0
230
1.0
  0
LINE
  5
1E7
100
AcDbEntity
  8
0
370
    35
390
0
 62
     7
 48
0.014258
100
AcDbLine
 10
226.263779
 20
88.372032
 30
0.0
 11
226.423126
 21
88.919655
 31
0.0
210
0.0
220
0.0
230
1.0
  0
LINE
  5
1E8
100
AcDbEntity
  8
0
370
    35
390
0
 62
     7
 48
0.015598
100
AcDbLine
 10
226.423126
 20
88.919655
 30
0.0
 11
226.561218
 21
89.528084
 31
0.0
210
0.0
220
0.0
230
1.0
  0
LINE
  5
1E9
100
AcDbEntity
  8
0
370
    35
390
0
 62
     7
 48
0.016984
100
AcDbLine
 10
226.561218
 20
89.528084
 30
0.0
 11
226.67807
 21
90.197304
 31
0.0
210
0.0
220
0.0
230
1.0
  0
LINE
  5
1EA
100
AcDbEntity
  8
0
370
    35
390
0
 62
     7
 48
0.018407
100
AcDbLine
 10
226.67807
 20
90.197304
 30
0.0
 11
226.773666
 21
90.927345
 31
0.0
210
0.0
220
0.0
230
1.0
  0
LINE
  5
1EB
100
AcDbEntity
  8
0
370
    35
390
0
 62
     7
 48
0.019858
100
AcDbLine
 10
226.773666
 20
90.927345
 30
0.0
 11
226.848022
 21
91.718193
 31
0.0
210
0.0
220
0.0
230
1.0
  0
LINE
  5
1EC
100
AcDbEntity
  8
0
370
    35
390
0
 62
     7
 48
0.021332
100
AcDbLine
 10
226.848022
 20
91.718193
 30
0.0
 11
226.901138
 21
92.569832
 31
0.0
210
0.0
220
0.0
230
1.0
  0
ARC
  5
1ED
100
AcDbEntity
  8
0
370
    35
390
0
 62
     7
100
AcDbCircle
 10
191.079544
 20
157.54895
 30
0.0
 40
2.0
210
0.0
220
0.0
230
1.0
100
AcDbArc
 50
18.660596
 51
90.000003
  0
LINE
  5
1EE
100
AcDbEntity
  8
0
370
    35
390
0
 62
     7
 48
0.116357
100
AcDbLine
 10
186.425262
 20
159.54895
 30
0.0
 11
191.079544
 21
159.54895
 31
0.0
210
0.0
220
0.0
230
1.0
  0
ARC
  5
1EF
100
AcDbEntity
  8
0
370
    35
390
0
 62
     7
100
AcDbCircle
 10
186.425262
 20
157.54895
 30
0.0
 40
2.0
210
0.0
220
0.0
230
1.0
100
AcDbArc
 50
90.000003
 51
177.060305
  0
ARC
  5
1F0
100
AcDbEntity
  8
0
370
    35
390
0
 62
     7
100
AcDbCircle
 10
191.134888
 20
164.548965
 30
0.0
 40
2.0
210
0.0
220
0.0
230
1.0
100
AcDbArc
 50
269.999997
 51
336.89068
  0
LINE
  5
1F1
100
AcDbEntity
  8
0
370
    35
390
0
 62
     7
 48
0.125594
100
AcDbLine
 10
191.134888
 20
162.54895
 30
0.0
 11
186.11113
 21
162.54895
 31
0.0
210
0.0
220
0.0
230
1.0
  0
ARC
  5
1F2
100
AcDbEntity
  8
0
370
    35
390
0
 62
     7
100
AcDbCircle
 10
186.11113
 20
164.548965
 30
0.0
 40
2.0
210
0.0
220
0.0
230
1.0
100
AcDbArc
 50
209.878685
 51
269.999997
  0
ARC
  5
1F3
100
AcDbEntity
  8
0
370
    35
390
0
 62
     7
100
AcDbCircle
 10
229.279221
 20
157.54895
 30
0.0
 40
2.0
210
0.0
220
0.0
230
1.0
100
AcDbArc
 50
90.000003
 51
159.198882
  0
ARC
  5
1F4
100
AcDbEntity
  8
0
370
    35
390
0
 62
     7
100
AcDbCircle
 10
233.905182
 20
164.54895
 30
0.0
 40
2.0
210
0.0
220
0.0
230
1.0
100
AcDbArc
 50
269.999997
 51
357.795875
  0
LINE
  5
1F5
100
AcDbEntity
  8
0
370
    35
390
0
 62
     7
 48
0.124215
100
AcDbLine
 10
229.279221
 20
159.54895
 30
0.0
 11
234.247833
 21
159.54895
 31
0.0
210
0.0
220
0.0
230
1.0
  0
ARC
  5
1F6
100
AcDbEntity
  8
0
370
    35
390
0
 62
     7
100
AcDbCircle
 10
234.247833
 20
157.54895
 30
0.0
 40
2.0
210
0.0
220
0.0
230
1.0
100
AcDbArc
 50
29.191607
 51
90.000003
  0
LINE
  5
1F7
100
AcDbEntity
  8
0
370
    35
390
0
 62
     7
 48
0.115334
100
AcDbLine
 10
233.905182
 20
162.54895
 30
0.0
 11
229.29184
 21
162.54895
 31
0.0
210
0.0
220
0.0
230
1.0
  0
ARC
  5
1F8
100
AcDbEntity
  8
0
370
    35
390
0
 62
     7
100
AcDbCircle
 10
229.29184
 20
164.54895
 30
0.0
 40
2.0
210
0.0
220
0.0
230
1.0
100
AcDbArc
 50
201.656995
 51
269.999997
  0
LINE
  5
1F9
100
AcDbEntity
  8
0
370
    35
390
0
 62
     7
 48
0.077793
100
AcDbLine
 10
216.831909
 20
232.697311
 30
0.0
 11
213.720184
 21
232.697311
 31
0.0
210
0.0
220
0.0
230
1.0
  0
ARC
  5
1FA
100
AcDbEntity
  8
0
370
    35
390
0
 62
     7
100
AcDbCircle
 10
216.831909
 20
234.697311
 30
0.0
 40
2.0
210
0.0
220
0.0
230
1.0
100
AcDbArc
 50
269.999997
 51
360.0
  0
LINE
  5
1FB
100
AcDbEntity
  8
0
370
    35
390
0
 62
     7
100
AcDbLine
 10
188.994919
 20
243.613068
 30
0.0
 11
216.831909
 21
243.613068
 31
0.0
210
0.0
220
0.0
230
1.0
  0
LINE
  5
1FC
100
AcDbEntity
  8
0
370
    35
390
0
 62
     7
 48
0.172894
100
AcDbLine
 10
218.831909
 20
234.697311
 30
0.0
 11
218.831909
 21
241.613068
 31
0.0
210
0.0
220
0.0
230
1.0
  0
ARC
  5
1FD
100
AcDbEntity
  8
0
370
    35
390
0
 62
     7
100
AcDbCircle
 10
216.831909
 20
241.613068
 30
0.0
 40
2.0
210
0.0
220
0.0
230
1.0
100
AcDbArc
 50
360.0
 51
90.000003
  0
LINE
  5
1FE
100
AcDbEntity
  8
0
370
    35
390
0
 62
     7
 48
0.187683
100
AcDbLine
 10
223.831909
 20
243.613068
 30
0.0
 11
231.339249
 21
243.613068
 31
0.0
210
0.0
220
0.0
230
1.0
  0
ARC
  5
1FF
100
AcDbEntity
  8
0
370
    35
390
0
 62
     7
100
AcDbCircle
 10
223.831909
 20
241.613068
 30
0.0
 40
2.0
210
0.0
220
0.0
230
1.0
100
AcDbArc
 50
90.000003
 51
180.000005
  0
LINE
  5
200
100
AcDbEntity
  8
0
370
    35
390
0
 62
     7
 48
0.077794
100
AcDbLine
 10
226.943649
 20
232.697311
 30
0.0
 11
223.831909
 21
232.697311
 31
0.0
210
0.0
220
0.0
230
1.0
  0
LINE
  5
201
100
AcDbEntity
  8
0
370
    35
390
0
 62
     7
 48
0.172894
100
AcDbLine
 10
221.831909
 20
241.613068
 30
0.0
 11
221.831909
 21
234.697311
 31
0.0
210
0.0
220
0.0
230
1.0
  0
ARC
  5
202
100
AcDbEntity
  8
0
370
    35
390
0
 62
     7
100
AcDbCircle
 10
223.831909
 20
234.697311
 30
0.0
 40
2.0
210
0.0
220
0.0
230
1.0
100
AcDbArc
 50
180.000005
 51
269.999997
  0
ARC
  5
203
100
AcDbEntity
  8
0
370
    35
390
0
 62
     7
100
AcDbCircle
 10
223.831909
 20
196.593811
 30
0.0
 40
2.0
210
0.0
220
0.0
230
1.0
100
AcDbArc
 50
180.000005
 51
225.381657
  0
LINE
  5
204
100
AcDbEntity
  8
0
370
    35
390
0
 62
     7
 48
0.22055
100
AcDbLine
 10
221.831909
 20
205.415802
 30
0.0
 11
221.831909
 21
196.593811
 31
0.0
210
0.0
220
0.0
230
1.0
  0
ARC
  5
205
100
AcDbEntity
  8
0
370
    35
390
0
 62
     7
100
AcDbCircle
 10
223.831909
 20
205.415802
 30
0.0
 40
2.0
210
0.0
220
0.0
230
1.0
100
AcDbArc
 50
151.371704
 51
180.000005
  0
ARC
  5
206
100
AcDbEntity
  8
0
370
    35
390
0
 62
     7
100
AcDbCircle
 10
216.831909
 20
205.43277
 30
0.0
 40
2.0
210
0.0
220
0.0
230
1.0
100
AcDbArc
 50
360.0
 51
28.075979
  0
LINE
  5
207
100
AcDbEntity
  8
0
370
    35
390
0
 62
     7
 48
0.225352
100
AcDbLine
 10
218.831909
 20
196.418686
 30
0.0
 11
218.831909
 21
205.43277
 31
0.0
210
0.0
220
0.0
230
1.0
  0
ARC
  5
208
100
AcDbEntity
  8
0
370
    35
390
0
 62
     7
100
AcDbCircle
 10
216.831909
 20
196.418686
 30
0.0
 40
2.0
210
0.0
220
0.0
230
1.0
100
AcDbArc
 50
320.630851
 51
360.0
  0
ARC
  5
209
100
AcDbEntity
  8
0
370
    35
390
0
 62
     7
100
AcDbCircle
 10
216.831909
 20
74.84359
 30
0.0
 40
2.0
210
0.0
220
0.0
230
1.0
100
AcDbArc
 50
320.630851
 51
360.0
  0
LINE
  5
20A
100
AcDbEntity
  8
0
370
    35
390
0
 62
     7
 48
0.225352
100
AcDbLine
 10
218.831909
 20
74.84359
 30
0.0
 11
218.831909
 21
83.857674
 31
0.0
210
0.0
220
0.0
230
1.0
  0
ARC
  5
20B
100
AcDbEntity
  8
0
370
    35
390
0
 62
     7
100
AcDbCircle
 10
216.831909
 20
83.857674
 30
0.0
 40
2.0
210
0.0
220
0.0
230
1.0
100
AcDbArc
 50
360.0
 51
28.075979
  0
ARC
  5
20C
100
AcDbEntity
  8
0
370
    35
390
0
 62
     7
100
AcDbCircle
 10
223.831909
 20
83.840706
 30
0.0
 40
2.0
210
0.0
220
0.0
230
1.0
100
AcDbArc
 50
151.371704
 51
180.000005
  0
LINE
  5
20D
100
AcDbEntity
  8
0
370
    35
390
0
 62
     7
 48
0.22055
100
AcDbLine
 10
221.831909
 20
83.840706
 30
0.0
 11
221.831909
 21
75.0187
 31
0.0
210
0.0
220
0.0
230
1.0
  0
ARC
  5
20E
100
AcDbEntity
  8
0
370
    35
390
0
 62
     7
100
AcDbCircle
 10
223.831909
 20
75.0187
 30
0.0
 40
2.0
210
0.0
220
0.0
230
1.0
100
AcDbArc
 50
180.000005
 51
225.381657
  0
LINE
  5
20F
100
AcDbEntity
  8
0
370
    35
390
0
 62
     7
 48
0.077793
100
AcDbLine
 10
216.831909
 20
111.122215
 30
0.0
 11
213.720184
 21
111.122215
 31
0.0
210
0.0
220
0.0
230
1.0
  0
ARC
  5
210
100
AcDbEntity
  8
0
370
    35
390
0
 62
     7
100
AcDbCircle
 10
216.831909
 20
113.122215
 30
0.0
 40
2.0
210
0.0
220
0.0
230
1.0
100
AcDbArc
 50
269.999997
 51
360.0
  0
LINE
  5
211
100
AcDbEntity
  8
0
370
    35
390
0
 62
     7
 48
0.187683
100
AcDbLine
 10
223.831909
 20
122.037971
 30
0.0
 11
231.339233
 21
122.037971
 31
0.0
210
0.0
220
0.0
230
1.0
  0
ARC
  5
212
100
AcDbEntity
  8
0
370
    35
390
0
 62
     7
100
AcDbCircle
 10
223.831909
 20
120.037971
 30
0.0
 40
2.0
210
0.0
220
0.0
230
1.0
100
AcDbArc
 50
90.000003
 51
180.000005
  0
LINE
  5
213
100
AcDbEntity
  8
0
370
    35
390
0
 62
     7
100
AcDbLine
 10
188.994919
 20
122.037971
 30
0.0
 11
216.831909
 21
122.037971
 31
0.0
210
0.0
220
0.0
230
1.0
  0
LINE
  5
214
100
AcDbEntity
  8
0
370
    35
390
0
 62
     7
 48
0.172894
100
AcDbLine
 10
218.831909
 20
113.122215
 30
0.0
 11
218.831909
 21
120.037971
 31
0.0
210
0.0
220
0.0
230
1.0
  0
ARC
  5
215
100
AcDbEntity
  8
0
370
    35
390
0
 62
     7
100
AcDbCircle
 10
216.831909
 20
120.037971
 30
0.0
 40
2.0
210
0.0
220
0.0
230
1.0
100
AcDbArc
 50
360.0
 51
90.000003
  0
ARC
  5
216
100
AcDbEntity
  8
0
370
    35
390
0
 62
     7
100
AcDbCircle
 10
223.831909
 20
113.122215
 30
0.0
 40
2.0
210
0.0
220
0.0
230
1.0
100
AcDbArc
 50
180.000005
 51
269.999997
  0
LINE
  5
217
100
AcDbEntity
  8
0
370
    35
390
0
 62
     7
 48
0.172894
100
AcDbLine
 10
221.831909
 20
120.037971
 30
0.0
 11
221.831909
 21
113.122215
 31
0.0
210
0.0
220
0.0
230
1.0
  0
LINE
  5
218
100
AcDbEntity
  8
0
370
    35
390
0
 62
     7
 48
0.077793
100
AcDbLine
 10
226.943634
 20
111.122215
 30
0.0
 11
223.831909
 21
111.122215
 31
0.0
210
0.0
220
0.0
230
1.0
  0
ENDSEC
  0
SECTION
  2
OBJECTS
  0
DICTIONARY
  5
19
100
AcDbDictionary
280
     0
281
     1
  3
ACAD_GROUP
350
1A
  3
ACAD_MLINESTYLE
350
1B
  3
ACAD_LAYOUT
350
1E
  3
ACAD_PLOTSETTINGS
350
22
  3
ACAD_PLOTSTYLENAME
350
1F
  3
ACAD_WIPEOUT_VARS
350
23
  0
DICTIONARY
  5
1A
102
{ACAD_REACTORS
330
19
102
}
100
AcDbDictionary
280
     0
281
     1
  0
DICTIONARY
  5
1B
102
{ACAD_REACTORS
330
19
102
}
100
AcDbDictionary
280
     0
281
     1
  3
Standard
350
1C
  0
MLINESTYLE
  5
1C
102
{ACAD_REACTORS
330
1B
102
}
100
AcDbMlineStyle
  2
Standard
 70
     0
  3

 62
     0
 51
90.0
 52
90.0
 71
     2
 49
0.5
 62
   256
  6
ByLayer
 49
-0.5
 62
   256
  6
ByLayer
  0
ACDBDICTIONARYWDFLT
  5
1F
102
{ACAD_REACTORS
330
19
102
}
100
AcDbDictionary
281
     1
  3
Normal
350
1D
100
AcDbDictionaryWithDefault
340
1D
  0
ACDBPLACEHOLDER
  5
1D
102
{ACAD_REACTORS
330
1F
102
}
  0
LAYOUT
  5
20
102
{ACAD_REACTORS
330
1E
102
}
100
AcDbPlotSettings
  1

  2

  4

  6

 40
0.0
 41
0.0
 42
0.0
 43
0.0
 44
0.0
 45
0.0
 46
0.0
 47
0.0
 48
0.0
 49
0.0
140
0.0
141
0.0
142
1.0
143
1.0
 70
  1024
 72
     0
 73
     0
 74
     0
  7

 75
     0
147
1.0
148
0.0
149
0.0
100
AcDbLayout
  1
Model
 70
     0
 71
     0
 10
0.0
 20
0.0
 11
0.0
 21
0.0
 12
0.0
 22
0.0
 32
0.0
 14
0.0
 24
0.0
 34
0.0
 15
0.0
 25
0.0
 35
0.0
146
0.0
 13
0.0
 23
0.0
 33
0.0
 16
0.0
 26
0.0
 36
0.0
 17
0.0
 27
0.0
 37
0.0
 76
     0
330
A
331
0
345
0
346
0
  0
LAYOUT
  5
21
102
{ACAD_REACTORS
330
1E
102
}
100
AcDbPlotSettings
  1

  2

  4

  6

 40
0.0
 41
0.0
 42
0.0
 43
0.0
 44
0.0
 45
0.0
 46
0.0
 47
0.0
 48
0.0
 49
0.0
140
0.0
141
0.0
142
1.0
143
1.0
 70
     0
 72
     0
 73
     0
 74
     0
  7

 75
     0
147
1.0
148
0.0
149
0.0
100
AcDbLayout
  1
Layout1
 70
     0
 71
     0
 10
0.0
 20
0.0
 11
0.0
 21
0.0
 12
0.0
 22
0.0
 32
0.0
 14
0.0
 24
0.0
 34
0.0
 15
0.0
 25
0.0
 35
0.0
146
0.0
 13
0.0
 23
0.0
 33
0.0
 16
0.0
 26
0.0
 36
0.0
 17
0.0
 27
0.0
 37
0.0
 76
     0
330
B
331
0
345
0
346
0
  0
DICTIONARY
  5
1E
102
{ACAD_REACTORS
330
19
102
}
100
AcDbDictionary
280
     0
281
     1
  3
Layout1
350
21
  3
Model
350
20
  0
DICTIONARY
  5
22
102
{ACAD_REACTORS
330
19
102
}
100
AcDbDictionary
280
     0
281
     1
  0
WIPEOUTVARIABLES
  5
23
100
AcDbWipeoutVariables
 70
     1
  0
ENDSEC
  0
EOF
